<mxfile host="app.diagrams.net" modified="2024-06-25T08:30:07.339Z" agent="Mozilla/5.0 (Windows NT 10.0; Win64; x64) AppleWebKit/537.36 (KHTML, like Gecko) Chrome/126.0.0.0 Safari/537.36 Edg/126.0.0.0" etag="e1wfqJUFvY-SN_igsloi" version="24.6.2" type="github">
  <diagram name="第 1 页" id="p4b73s29t9qYTIhmIupe">
    <mxGraphModel dx="837" dy="514" grid="1" gridSize="10" guides="1" tooltips="1" connect="1" arrows="1" fold="1" page="1" pageScale="1" pageWidth="827" pageHeight="1169" math="0" shadow="0">
      <root>
        <mxCell id="0" />
        <mxCell id="1" parent="0" />
        <mxCell id="P5oh4x6p1S0fZvczk9vT-1" value="8" style="rounded=0;whiteSpace=wrap;html=1;fillColor=#d5e8d4;strokeColor=#82b366;" parent="1" vertex="1">
          <mxGeometry x="280" y="240" width="100" height="40" as="geometry" />
        </mxCell>
        <mxCell id="P5oh4x6p1S0fZvczk9vT-2" value="6" style="rounded=0;whiteSpace=wrap;html=1;fillColor=#f8cecc;strokeColor=#b85450;" parent="1" vertex="1">
          <mxGeometry x="380" y="240" width="100" height="80" as="geometry" />
        </mxCell>
        <mxCell id="P5oh4x6p1S0fZvczk9vT-3" value="14" style="rounded=0;whiteSpace=wrap;html=1;fillColor=#ffe6cc;strokeColor=#d79b00;" parent="1" vertex="1">
          <mxGeometry x="280" y="280" width="50" height="60" as="geometry" />
        </mxCell>
        <mxCell id="P5oh4x6p1S0fZvczk9vT-4" value="15" style="rounded=0;whiteSpace=wrap;html=1;fillColor=#fff2cc;strokeColor=#d6b656;" parent="1" vertex="1">
          <mxGeometry x="330" y="280" width="50" height="60" as="geometry" />
        </mxCell>
        <mxCell id="P5oh4x6p1S0fZvczk9vT-5" value="13" style="rounded=0;whiteSpace=wrap;html=1;fillColor=#e1d5e7;strokeColor=#9673a6;" parent="1" vertex="1">
          <mxGeometry x="430" y="320" width="50" height="100" as="geometry" />
        </mxCell>
        <mxCell id="P5oh4x6p1S0fZvczk9vT-6" value="18" style="rounded=0;whiteSpace=wrap;html=1;fillColor=#647687;fontColor=#ffffff;strokeColor=#314354;" parent="1" vertex="1">
          <mxGeometry x="380" y="320" width="50" height="50" as="geometry" />
        </mxCell>
        <mxCell id="P5oh4x6p1S0fZvczk9vT-7" value="19" style="rounded=0;whiteSpace=wrap;html=1;fillColor=#e3c800;fontColor=#000000;strokeColor=#B09500;" parent="1" vertex="1">
          <mxGeometry x="380" y="370" width="50" height="50" as="geometry" />
        </mxCell>
        <mxCell id="P5oh4x6p1S0fZvczk9vT-8" value="10" style="rounded=0;whiteSpace=wrap;html=1;fillColor=#60a917;fontColor=#ffffff;strokeColor=#2D7600;" parent="1" vertex="1">
          <mxGeometry x="280" y="340" width="40" height="80" as="geometry" />
        </mxCell>
        <mxCell id="P5oh4x6p1S0fZvczk9vT-9" value="16" style="rounded=0;whiteSpace=wrap;html=1;fillColor=#1ba1e2;fontColor=#ffffff;strokeColor=#006EAF;" parent="1" vertex="1">
          <mxGeometry x="320" y="340" width="60" height="50" as="geometry" />
        </mxCell>
        <mxCell id="P5oh4x6p1S0fZvczk9vT-10" value="17" style="rounded=0;whiteSpace=wrap;html=1;fillColor=#d80073;fontColor=#ffffff;strokeColor=#A50040;" parent="1" vertex="1">
          <mxGeometry x="320" y="390" width="60" height="30" as="geometry" />
        </mxCell>
        <mxCell id="kx_k52X7v49Zel8knufp-1" value="" style="shape=image;verticalLabelPosition=bottom;labelBackgroundColor=default;verticalAlign=top;aspect=fixed;imageAspect=0;image=data:image/png,iVBORw0KGgoAAAANSUhEUgAAA5sAAAG7CAYAAABNWIEPAAAABmJLR0QA/wD/AP+gvaeTAAAgAElEQVR4nOzdeXRUdZ7+8aeSECALhi1LS4QgEOyQBhvRANImICouqEwAWYL06G9kxG7AHlmiQgTF2D0jtE60XRAhiLL1CI0hLTSIwqACCSADJECFiMCAYQ1BiKm6vz+YYJAtgVt1q269X+dwjgT43k+O+T7nPvdW3XIYhmEIAAAAAADzLAiyegIAAAAAgP1QNgEAAAAApqNsAgAAAABMF2L1AAAAABdTWVmpXbt26eDBgzp16pROnTqlqKgohYWFKT4+XvHx8XI4HFaPCQC4BMomAADwCYcPH1ZeXp5WrVqlNWvWyOl0yuVyXfLvh4eHq0OHDkpNTVWvXr2UlpamkBBObQDAVzh4Gi0AALCKYRjKz8/X22+/rby8PDkcDqWkpCg1NVVJSUlKTExUXFycwsLCFB4ermPHjqmiokJ79uxRUVGRNm7cqJUrV2rHjh2KiYnR4MGDNXLkSN14441Wf2sAEOgWUDYBAIAlFi9erKysLG3evFk9e/bUo48+qn79+ik8PLzOa5WUlCg3N1ezZs1SaWmpBg4cqKysLLVt29YDkwMAaoGPPgEAAN7ldDp177336uGHH1bbtm1VUFCgFStWKCMj46qKpiQlJCRo4sSJKi4uVm5urjZt2qRf/epXysrK0unTp03+DgAAtcGdTQAA4DWLFi3S448/rpiYGOXk5KhXr14eOU5VVZVycnI0ceJExcfHa968eUpKSvLIsQAAF8WdTQAA4Hlut1u/+93v1L9/fw0fPlxbtmzxWNGUpJCQEI0aNUqFhYUKCwtT165dlZeX57HjAQAuRNkEAAAeVVlZqUGDBundd9/V/PnzNW3aNIWGhnrl2K1bt9aaNWuUnp6uhx56SLm5uV45LgCAjz4BAAAe5Ha7lZGRofz8fC1btkypqalenyE0NFQzZsxQdHS0hg8frtDQUA0cONDrcwBAoKFsAgAAjxk1apSWLFliWdGs5nA4lJ2drTNnzmjYsGGKjo5WWlqaZfMAQCDgAUEAAMAj5s6dq6FDh2r+/PlKT0+3ehxJZ++0PvLII/r8889VWFiouLg4q0cCALviczYBAID5nE6nOnXqpMcee0zTpk2zepzzlJeXq3PnzmrZsqU+/fRTORwOq0cCADuibAIAAPP16dNH3333nTZu3Oi1hwHVxYYNG5SSkqKZM2cqIyPD6nEAwI746BMAAGCujz/+WH//+9/1xhtv+GTRlKRbbrlFTzzxhJ555hmVl5dbPQ4A2BJ3NgEAgGkMw1Dnzp3Vpk0bzZ8/3+pxLuvIkSNKSEhQZmamxo0bZ/U4AGA33NkEAADmyc/P16ZNm5SZmWn1KFfUpEkTPfnkk5o2bZpOnz5t9TgAYDuUTQAAYJp33nlHPXv2VKdOnawepVZGjRqlw4cPa/HixVaPAgC2Q9kEAACmOHz4sPLy8vToo49aPUqtxcbGqnfv3srNzbV6FACwHcomAAAwRV5eniTp4YcftniSuhk0aJCWL1+uiooKq0cBAFuhbAIAAFOsXLlSKSkpioiIsHqUOrnzzjtVWVmptWvXWj0KANgKZRMAAJhi7dq1uuOOO0xft7KyUkOGDFFKSorpa0tSXFycEhMTtWbNGo+sDwCBirIJAACuWWVlpZxOp5KTk01d98iRI3rwwQe1fft2U9f9uaSkJI8fAwACDWUTAABcs127dsnlcqldu3amrltcXKycnBz17dvX1HV/LjExUUVFRR49BgAEmhCrBwAAAP7v0KFDks4+3dVMnnrp7M/Fxsbq+++/98qxACBQcGcTAABcs5MnT0qS3z0cqFpkZKTKy8utHgMAbIWyCQAArlllZaUkqX79+hZPcnUaNGigM2fOWD0GANgKZRMAAFyzsLAwSfLbz6o8efKkwsPDrR4DAGyFsgkAAK5ZZGSkJPntS1FPnDihRo0aWT0GANgKDwgCAADX7IYbbpAklZaW6vrrrzdt3R07duimm24693uHw6HXX39dTz31lGnHkKQ9e/ac+x4AAOagbAIAgGvWokULRUREqKioSN26dTNt3fbt28swDNPWu5SioiIlJiZ6/DgAEEh4GS0AALhmDodDSUlJ2rBhg9Wj1Jnb7VZhYaGSk5OtHgUAbIWyCQAATJGamqpVq1ZZPUadbd68WWVlZUpLS7N6FACwFcomAAC4Zvv371d5ebm2b98up9Np9Th1smzZMkVHR3NnEwBMRtkEAABXZf/+/Xr99df1m9/8RvHx8crNzVWTJk00Z84cq0erkw8//FD9+/dXUBCnRQBgJlIVAADUWllZmWbPnq0HHnhALVu21Pjx43Xddddp5syZOnDggB599FHNmjVLLpfL6lFrZd26ddq6dasyMjKsHgUAbMdheOMRbwAAwG+VlZUpLy9PCxYsUH5+vkJDQ9WzZ0/1799f//RP/6Tw8PBzf9fpdCoxMVGzZ8/WoEGDLJy6dvr27atDhw7pyy+/tHoUALCbBZRNAABwgboUzJ8bMmSINm/erE2bNikkxHc/ZW3Dhg269dZbtWTJEt1///1WjwMAdkPZBAAAZ11Lwaxp165dSk5O1ksvvaSnn37aw1NfHbfbrW7duik0NFSrV6+Ww+GweiQAsJsFvnu5EQAAeNylCuaMGTPqVDBratOmjcaNG6esrCw99NBDat26tQcmvzY5OTnauHGjCgoKKJoA4CHc2QQAIMCYdQfzck6fPq2uXbsqJCREa9euVWhoqAmTm6OgoEDdunXThAkTNGnSJKvHAQC74mW0AAAEAm8UzJ8rLi7WLbfcovT0dM2YMcMn7iAeOHBA3bt3V0JCgpYvX87HnQCA5/AyWgAA7MoTL5Gti3bt2umjjz7SQw89pOjoaGVnZ3v0eFdy7Ngx9enTR6GhoZo3bx5FEwA8jLIJAICNWF0wf+7ee+/VjBkzNHz4cJ05c0avvvqqJXc4Dxw4oD59+qikpEQjRoxQs2bNvD4DAAQayiYAAH7O1wrmz2VkZKh+/foaNmyY9u3bpxkzZigyMtJrxy8oKFB6erpCQ0M1atQoTZkyRVFRUZowYYLXZgCAQETZBADAD/l6wfy5AQMGqHnz5ho0aJA6d+6sDz74QF26dPHoMd1ut3JycvTMM8+oe/fumjdvnpo1a6YmTZpozJgxkkThBAAPomwCAOAn/K1g/lxaWpoKCwuVkZGhrl276oknntCUKVPUpEkT04+1YcMGjRw5UgUFBXruuef03HPPKTg4WJI0evRoSaJwAoCHUTYBAPBh/l4wfy4uLk7Lly/XnDlz9Mwzz2jOnDl68sknNWrUKMXGxl7z+l9++aWmTp2qpUuX6vbbb1dBQYGSk5Mv+HsUTgDwPD76BAAAH2PFx5RYoby8XG+88YZeffVVHTlyRHfddZcGDhyo3r17Ky4urlZruN1ubdmyRXl5efrggw+0bds2paSk6Nlnn9V99913xYcRTZ8+XWPGjNHUqVMpnABgLj5nEwAAXxAoBfNiTp8+rcWLFys3N1fLly9XZWWlEhMT1aFDB7Vr105xcXGKiIhQeHi4jh07pvLycpWUlKi4uFiFhYUqKytT8+bNNWDAAGVkZOi2226r0/EpnADgEZRNAACsEsgF81IqKiq0du1affHFF9qxY4eKi4t18OBBVVRU6OTJk2rcuLEiIiIUHx+v9u3bKzk5WWlpaUpOTr6mz82kcAKA6SibAAB4EwXTd1E4AcBUC3hAEAAAHma3h/zYFQ8NAgBzUTYBAPAACqZ/onACgHkomwAAmISCaQ8UTgAwB2UTAIBrQMG0JwonAFw7yiYAAHVEwQwMFE4AuDaUTQAAaoGCGZgonABw9SibAABcAgUTEoUTAK4WZRMAgBoomLgYCicA1B1lEwAQ8CiYqA0KJwDUDWUTABCQKJi4GhROAKg9yiYAIGBQMGEGCicA1A5lEwBgaxRMeAKFEwCujLIJALAdCia8gcIJAJdH2QQA2AIFE1agcALApVE2AQB+i4IJX0DhBICLo2wCAPwKBRO+iMIJABeibAIAfB4FE/6AwgkA56NsAgB8EgUT/ojCCQA/oWwCAHwGBRN2QOEEgLMomwAAS1EwYUcUTgCgbAIALEDBRCCgcAIIdJRNAIBXUDARiCicAAIZZRMA4DEUTIDCCSBwUTYBAKaiYAIXonACCESUTQDANaNgAldG4QQQaCibAICrQsEE6o7CCSCQUDYBALVGwQSuHYUTQKCgbAIALouCCZiPwgkgEFA2AQAXoGACnkfhBGB3lE0AgCQKJmAFCicAO6NsAkAAo2AC1qNwArAryiYABBgKJuB7KJwA7IiyCQABgIIJ+D4KJwC7oWwCgE1RMAH/Q+EEYCeUTQCwEQom4P8onADsgrIJAH6OggnYD4UTgB1QNgHAD1EwAfujcALwd5RNAPATFEwg8FA4AfgzyiYA+DAKJgAKJwB/RdkEAB9DwQTwc7UpnC6XSwUFBerSpYtXZwOAS6FsAoAPoGACuJLLFU6Xy6UhQ4Zo3bp12r17t0JCOMUDYD2SCAAsQsEEUFcXK5zVRXPhwoVyu92aO3euhg0bZuWYACBJchiGYVg9BAAEiksVzP79+1MwAdTa9OnTNWbMGL344ovatm2b5s2bJ5fLpaCgICUkJKi4uFhBQUFWjwkgsC2gbAKAh1EwAXjCv//7v+v111/Xvn375HK5zn3d4XBo/vz5Sk9Pt3A6AKBsAoBHUDABeJLL5dKwYcPO3dGsKSgoSO3bt9fWrVvlcDgsmhAAKJsArqCyslK7du3SwYMHderUKZ06dUpRUVEKCwtTfHy84uPjOZn5PxRMAN5wuaJZ09KlS3Xfffdd9XHIfwDXiLIJ4HyHDx9WXl6eVq1apTVr1sjpdF72ZCY8PFwdOnRQamqqevXqpbS0tIB6CiIFE4A31XwY0OWyOTg4WDfffLPWr19f67XJfwAmo2wCkAzDUH5+vt5++23l5eXJ4XAoJSVFqampSkpKUmJiouLi4hQWFqbw8HAdO3ZMFRUV2rNnj4qKirRx40atXLlSO3bsUExMjAYPHqyRI0fqxhtvtPpb8wgKJgCrrF+/Xunp6dq7d6+ks/l9Of/4xz/Us2fPS/45+Q/AgyibQKBbvHixsrKytHnzZvXs2VOPPvqo+vXrd1WFqaSkRLm5uZo1a5ZKS0s1cOBAZWVlqW3bth6Y3LsomAB8hdvt1qJFi5SZmandu3crKCjooncgQ0JC1L17d3322WcXXYf8B+BhlE0gUDmdTj311FPKz89Xenq6MjMz1alTJ1PWdrlcmj9/vl588UU5nU6NGzdO48ePV4MGDUxZ31somAB8mdvt1ieffKKJEydq06ZNCgkJUVVV1QV/b82aNerevfu535P/ALyEsgkEokWLFunxxx9XTEyMcnJy1KtXL48cp6qqSjk5OZo4caLi4+M1b948JSUleeRYZqFgAvBHK1asUGZmptavX39e6QwJCdGdd96pZcuWSSL/AXgVZRMIJG63W6NGjVJOTo5GjRqlV155RaGhoR4/rtPp1COPPKIdO3boo48+0r333uvxY9YFBROAXaxcuVKTJ0/W6tWrFRoaqsrKSjkcDm3YsEEzZ84k/wF4E2UTCBSVlZXKyMjQkiVLlJub6/UP+66srNSIESM0Z84czZgxQxkZGV49/s9RMAHY2bp16zRlyhTl5+fLMAy1aNFCZWVl5D8Ab1rA86mBAOB2u5WRkaH8/HwtW7ZMqampXp8hNDRUM2bMUHR0tIYPH67Q0FANHDjwqtbasWOHpk6dqtmzZ9fp312qYM6YMYOCCcBWunbtqry8PBUUFOjBBx/Ud999p1mzZnm9aErm5j8A/0LZBALAqFGjtGTJEsuKZjWHw6Hs7GydOXNGw4YNU3R0tNLS0uq0xgcffKDHH39cp0+f1qRJk674eH0KJoBANnPmTJWVlWnWrFlq1qyZZXOYkf8A/A8vowVsbu7cuRo6dKjmz59vyRXti3G73XrkkUf0+eefq7CwUHFxcVf8N5WVlRozZozefPNNSWcfejF58mSNHz/+gr/LS2QBwD75D8Bv8Z5NwM6cTqc6deqkxx57TNOmTbN6nPOUl5erc+fOatmypT799FM5HI5L/t3vvvtO/fr1U2Fh4XmP9e/QoYO++eYbSRRMAKjJLvkPwK9RNgE769Onj7777jtt3LjRK08drKsNGzYoJSVFM2fOvOQDI1atWqX09HSVl5frxx9/vODPn3/+eX322Wdau3atwsPD9cADD6h///665557+Fw3AAHLDvkPwO9RNgG7+vjjj9WvXz+tXr1aPXr0sHqcSxo5cqQWLVqknTt3KjIy8tzXDcPQH//4R2VmZko6+9Krn6tXr55CQ0OVlpbGHUwA+D/+nv8AbIOyCdiRYRjq3Lmz2rRpo/nz51s9zmUdOXJECQkJyszM1Lhx4yRJx48f17Bhw7R06dKLlsyaar6UFgACnb/nPwBbWRBk9QQAzJefn69Nmzaduyvoy5o0aaInn3xS06ZN0+nTp1VYWKjk5GQtW7bsikVTkrZu3apdu3Z5YVIA8H3+nP8A7IeyCdjQO++8o549e6pTp05Wj1Iro0aN0uHDh/WHP/xBKSkpOnDgwEXfn3kx9erV08KFCz08IQD4B3/N/8WLF1s9CgAP4GW0gM0cPnxY119/vd555x2/eejCDz/8oLZt22rfvn2SzhbIoKDLXwurvutZVVWlDh06aMuWLR6fEwB8mT/mvyTde++9CgoK0tKlS60eBYC5FoRYPQEAc+Xl5UmSHn74YYsnqb1NmzbprrvuUm5url599VWdPn36vJfQnjlzRqdOnTrv3xw9evS831dUVPBwIAABzR/zX5IGDRqkxx9/nBwHbIiyCdjMypUrlZKSooiICKtHqbWuXbuqVatWmjlzphITE3XXXXdZPRIA+B1/zH9JuvPOO1VZWam1a9eS/4DN8J5NwGbWrl2rO+64w9Q1P/nkE3Xr1k0NGjRQfHy8nn76adMf5hAXF6fExEStWbPG1HUBIFB4Iv93796t4cOHq3HjxoqMjFSPHj303//936Yeg/wH7IuyCdhIZWWlnE6nkpOTTVvz5MmTeuCBBzRixAgdPnxYf/3rXzV37lxNmDDBtGNUS0pK0vbt201fFwDszhP5L0lPPPGEgoODVVJSotLSUiUkJOixxx4z9RgS+Q/YFWUTsJFdu3bJ5XKpXbt2pq7brVs3DRs2TOHh4erSpYsyMjL02WefmXoMSUpMTFRRUZHp6wKA3Xkq/x0Oh/74xz+qUaNGOnXqlCoqKtS9e3dTjyGR/4BdUTYBGzl06JAkKTY21rQ1IyIiLnhpU3l5uUceqx8bG6vvv//e9HUBwO48kf+StHz5cjVt2lS/+MUvdMMNN6hRo0Z68803TT2GRP4DdkXZBGzk5MmTkuTRh0McPHhQy5cv1wsvvGD62pGRkSovLzd9XQCwO0/n/4EDB7R7926VlZWpb9++pq9P/gP2RNkEbKSyslKSVL9+fY+sf/LkSQ0dOlTvv/++brjhBtPXb9Cggc6cOWP6ugBgd57Of4fDoYSEBP35z39Wfn6+Nm7caOr65D9gT5RNwEbCwsIknf3MSbPt379fgwYN0tSpU9WjRw/T15fOllk+Yw0A6s4T+V9VVaWbb775vK+FhoaafhyJ/AfsirIJ2EhkZKQkmf5SpC1btuipp57SW2+9pS5dukiSUlNTTT2GJJ04cUKNGjUyfV0AsDtP5f+mTZs0ffp0lZeXa9++fRo9erRiY2MvKKHXivwH7ImyCdhI9UtbS0tLTVuzrKxMt99+u/7rv/5L119/vRwOhxwOh1avXm3aMart2bPHIy/PBQC780T+h4SEKD8/X3/7298UHx+vjh076tSpU/r73/9+rtyahfwH7CnE6gEAmKdFixaKiIhQUVGRunXrZsqazZo104kTJ0xZ60qKioqUmJjolWMBgJ14Iv8l6e6779bdd99t2nqXQv4D9sSdTcBGHA6HkpKStGHDBqtHqTO3263CwkLTP5AcAAIB+Q/AF1E2AZtJTU3VqlWrrB6jzjZv3qyysjKlpaVZPQoA+CXyH4CvoWwCNtOrVy9t375dTqfT6lHqZNmyZYqOjubKNgBcJfIfgK+hbAI2k5aWptjYWM2ZM8fqUerkww8/VP/+/RUURCwBwNUg/wH4GnY1YDMhISEaNGiQZs2aJZfLZfU4tbJu3Tpt3bpVGRkZVo8CAH6L/AfgaxyGYRhWDwHAXJs3b1bnzp2Vm5urQYMGWT3OFfXt21eHDh3Sl19+afUoAODXnE6nEhMTNXv2bPIfgNUWUDYBGzl+/Lj+/Oc/a/r06QoODlZMTIw2bdqkkBDf/ZSjDRs26NZbb9WSJUt0//33Wz0OAPi9IUOGaPPmzeQ/AKtRNgE7KC8v1xtvvKFXXnlFVVVVevLJJ9W/f3/dfvvteumll/T0009bPeJFud1udevWTaGhoVq9erUcDofVIwGA39u1a5eSk5PJfwBWW+C7l7sAXNHFSua4cePUuHFjSdK4ceOUlZWlhx56SK1bt7Z42gvl5ORo48aNKigo4EQDAEzSpk0b8h+AT+DOJuCHrlQyq50+fVpdu3ZVSEiI1q5dq9DQUIsmvlBBQYG6deumCRMmaNKkSVaPAwC2Qv4D8AG8jBbwJ7UtmTUVFxfrlltuUXp6umbMmOETV5APHDig7t27KyEhQcuXL+dx9wDgAeQ/AIvxMlrAH1xNyazWrl07ffTRR3rooYcUHR2t7OxsL0x8aceOHVOfPn0UGhqqefPmcaIBAB5C/gOwGmUT8GHXUjJruvfeezVjxgwNHz5cZ86c0auvvmrJFe4DBw6oT58+Kikp0YgRI9SsWTOvzwAAgYT8B2Alyibgg8wqmTVlZGSofv36GjZsmPbt26cZM2YoMjLSxKkvr6CgQOnp6QoNDdWoUaM0ZcoURUVFacKECV6bAQACEfkPwCqUTcCHeKJk1jRgwAA1b95cgwYNUufOnfXBBx+oS5cupqx9KW63Wzk5OXrmmWfUvXt3zZs3T82aNVOTJk00ZswYSeKEAwA8jPwHYAkDgOVOnDhhZGdnG40bNzYiIyONcePGGUeOHPHY8fbv32/06tXLCA4ONp588knj8OHDHjnO+vXrjVtvvdUICQkxsrKyjKqqqvP+fNq0aYYkY+rUqR45PgDgfOQ/AC+aT9kELOTtklmT2+02Zs+ebcTExBiNGjUyxo8fbxw4cMCUtdetW2c88MADhsPhMHr06GFs2bLlkn+XEw4A8K7q/I+Ojib/AXjS/OCsrKwsS2+tAgGovLxc06dPV3p6ulavXq0RI0Zo4cKFeuCBB9SwYUOvzOBwONSxY0c98cQTatCggd544w1NnTpVX331lVwul6Kjo2v9nh63263Nmzfrvffe04gRI5Sdna0mTZrozTff1NSpUxUTE3PJf5uSkqKoqCiNHTtW9evXV48ePcz6FgEAF1Gd/0ePHtXOnTu1fv168h+AJ2zjczYBL/L0ezKvxenTp7V48WLl5uZq+fLlqqysVGJiojp06KB27dopLi5OERERCg8P17Fjx1ReXq6SkhIVFxersLBQZWVlat68uQYMGKCMjAzddtttdTr+9OnTNWbMGE2dOpX38ACAhx0/flwJCQkaPXq0xo4dS/4D8IQFlE3AC3y5ZF5MRUWF1q5dqy+++EI7duxQcXGxDh48qIqKCp08eVKNGzdWRESE4uPj1b59eyUnJystLU3JycnX9LlpnHAAgHdkZWVp+vTp2rNnj6Kios59nfwHYKIFPI0W8CB/K5nVwsPDddddd+muu+7y6nFHjx4tSTylEAA86Pjx43rttdf09NNPn1c0JfIfgLkom4AH+GvJ9AWccACAZ02bNk1ut1u///3vrR7lPOQ/YD+UTcBElExzcMIBAJ5xubuavoD8B+yFsgmYgJJpPk44AMB8vnpXsybyH7APyiZwDSiZnsUJBwCYx9fvatZE/gP2QNkErgIl03s44QAAc/jDXc2ayH/A/1E2gTqgZFqDEw4AuDb+dFezJvIf8G+UTaAWKJnW44QDAK6ev93VrIn8B/wXZRO4DEqmb+GEAwDqzl/vatZE/gP+ibIJXAQl03dxwgEAdePPdzVrIv8B/0PZBGqgZPoHTjgAoHbscFezJvIf8C+UTUCUTH/ECQcAXJld7mrWRP4D/oOyiYBGyfRvnHAAwKXZ7a5mTeQ/4B8omwhIlEz74IQDAC7Ojnc1ayL/Ad9H2URAoWTaEyccAHA+O9/VrIn8B3wbZRMBgZJpf5xwAMBP7H5XsybyH/BdlE3YGiUzsHDCAQCBc1ezJvIf8E2UTdgSJTNwccIBINAF0l3Nmsh/wPdQNmErlExInHAACFyBeFezJvIf8C2UTdgCJRM/xwkHgEAUqHc1ayL/Ad9B2YRfo2TicjjhABBIAv2uZk3kP+AbKJvwS5RM1BYnHAACBXc1z0f+A9ajbMKvUDJxNTjhAGB33NW8OPIfsBZlE36BkolrxQkHADvjrualkf+AdSib8GmUTJiJEw4AdsRdzSsj/wFrUDbhkyiZ8BROOADYDXc1a4f8B7yPsgmfQsmEN3DCAcAuuKtZN+Q/4F2UTfgESia8jRMOAHbAXc26I/8B76FswlKUTFiJEw4A/oy7mleP/Ae8g7IJS1Ay4Ss44QDgr7ireW3If8DzKJvwKkomfBEnHAD8DXc1zUH+A55F2YRXUDLh6zjhAOBPuKtpHvIf8BzKJjyKkgl/wgkHAH/AXU3zkf+AZ1A24RGUTPgrTjgA+DruanoG+Q+Yj7IJU1EyYQeccADwBUVFRWrTpo2Cg4PPfY27mp5F/gPmomzCFJRM2A0nHACsNnbsWG3dulUvvPCCBg0apODgYO5qegH5D5iHsolrQsmEnXHCAcBKO3fuVElJiYYNG6aJEydq/Pjx3NX0EvIfMAdlE1eFkolAwQkHAKt8++23Mv300ckAACAASURBVAxDklRaWqoRI0YoIiJC1113naqqqhQSwmmcJ5H/wLULzsrKyrJ6CPiP8vJyTZ8+Xenp6Vq9erVGjBihhQsX6oEHHlDDhg2tHg/wiJSUFEVFRWns2LGqX7++evToYfVIAGzu6NGjevHFF8/9vrp0VlVVKT8/X++9954iIiLUsWNHBQUFWTWm7ZH/wDXZxiUx1Ap3MhHouMINwJtKSkou+nW32y1J2r9/v0aMGKE//elPWrp0qRITE705XkAh/4GrR9nEZVEygZ/U5oTD5XKpoKBAXbp08epsAOxlz549cjgc5+5o/pzb7ZbD4VDfvn3Vrl07L08XeMh/4OpQNnFRlEzg4i53wuFyuTRkyBCtW7dOu3fv5v1UAK5aSUmJ6tWrp8rKyov+ucPh0NixY5Wdne3lyQIX+Q/UHTsB56FkAld2sROO6hONhQsXyu12a+7cuRo2bJiVYwLwYyUlJZe8q0nRtA75D9QNZROSKJlAXdU84XC73dq2bZsWLlwol8uloKAgTZ48WUOHDuXBHQCuyu7du/Xjjz9e9M8mT56s5557zssToRr5D9QeZTPAUTKBqzd69GhVVVXp9ddf1759++RyuSSdfS+V0+nUX//6V6Wnp1s8JQB/tHPnzgu+5nA49Oqrr54rO7AO+Q/UDpdcAlR5ebleeeUVtWzZUi+99JL+5V/+RaWlpcrOzqZoArXkcrlUWFh43olGNYfDoUmTJl3yZXAAcDn79u07998Oh0MOh0OvvfYaRdNHkP9A7TgMdsIVVVZWateuXTp48KBOnTqlU6dOKSoqSmFhYYqPj1d8fLwcDofVY9YKdzIBc7hcLg0bNkzz5s274ESjpqVLl+q+++676uPYKX+AQHO1+/fgwYOKjY099/ugoCC9++67+u1vf+vN8XEJ5D9Qawsomxdx+PBh5eXladWqVVqzZo2cTudlwyQ8PFwdOnRQamqqevXqpbS0NJ97ChklEzBPzYdBXC4bgoODdfPNN2v9+vW1XtuO+QMEivP27xdfyFlScvn9GxZ2dv+mpZ23f7/66iulpKRIOls0c3NzNXjwYG99G7gM8h+oE8pmNcMwlJ+fr7ffflt5eXlyOBxKSUlRamqqkpKSlJiYqLi4OIWFhSk8PFzHjh1TRUWF9uzZo6KiIm3cuFErV67Ujh07FBMTo8GDB2vkyJG68cYbLf2+KJmA+davX6/09HTt3btXkq74Uql//OMf6tmz5yX/3K75AwSCc/v3rbeUt2yZHJJu+1WyftO5s25q3VrtWrVUXLNmatiggcIbNtSx8nKd+uEHle4/oOLSUhVs367PNmxQkbNEMdHRGjxkiFq2bKnRo0crODhYH330Ee/98yHkP1AnC2TA+Pjjj41OnToZDofD6NWrlzF79mzj5MmTV7WW0+k0XnjhBaN169ZGcHCwMXjwYKO4uNi0Wb/++mtjzpw5V/x7J06cMLKzs43GjRsbkZGRxrhx44wjR46YNgcQ6FwulzF//nyjTZs2hsPhMIKDgw1JF/wKCQkx7rjjjkuu40/5A+B8H3/8sdGpY0fD4XAYabfdarw3ZbJxeO0XxumCDXX+teNvS4znRzxhJMS3MIKCgoygoCDjzTfftPpbxEWQ/0CtzQ/osrl7926jT58+hsPhMPr3728UFhaatnZVVZUxd+5c45e//KXRoEEDY9KkScYPP/xwTWsWFhYajRo1Mn7xi18YZ86cuejfoWQC3uVyuYwlS5YYnTp1OndycbGTjjVr1pz37/wtfwD8ZPfu3Uafe+4xHA6H8U+97zS++nDuVRXMi/2q2PC10btrVyM+NtZoUL8++9eHkf/AFQVu2Vy4cKERFRVlJCYmGitWrPDYcX788Udj+vTpRqNGjYykpCRj69atV7XO1q1bjaioKCM4ONgICgoy/vKXv5z355RMwHrLly83unTpcsFJR0hIiHHPPfec+3v+lj8AfrJw4UIj6rrrjHatWhnL/vKGaSWz5q+9Kz41Tq7/yvj3f/uD0Sgiwkj65S/Zvz6O/Acuan7AvWfT7XZr1KhRysnJ0ahRo/TKK68oNDTU48d1Op165JFHtGPHDn300Ue69957a/1vd+7cqW7duunYsWOqqqqSw+FQbGys9uzZozNnzvCeTMDHrFy5UpMnT9bq1asVGhqqyspKORwObdiwQTNnzvSr/AFwVs3zh6cGDdJLo36n0Hr1PH7ckn37lDEhU0V7SvXRvHnsXx9H/gPnCawHBFVWViojI0NLlixRbm6u199wX1lZqREjRmjOnDmaMWOGMjIyrvhvSktL1a1bNx06dEhVVVXnvh4UFKSMjAwtXrxY0tkPFx49erSuu+46j80PoG7WrVunKVOmKD8/X4ZhqEWLFiorK/Ob/AFw1rnzh8WL9d6Uyep3Zy/vHv/HH/XU1Jf1Yd4y9q+fIP8BSdKCgHk+stvtVkZGhvLz87Vs2TKlpqZ6fYbQ0FDNmDFD0dHRGj58uEJDQzVw4MBL/v29e/fq9ttv1/fff39e0ZTOPr3sb3/7m373u9/pD3/4AyUT8EFdu3ZVXl6eCgoK9OCDD+q7777TrFmzLHmyZF3zB8BZ584f8vK05PXX9JtbOnt9htB69fTWxOcV3bgx+9dPkP/AWQFTNkeNGqUlS5ZYVjSrORwOZWdn68yZMxo2bJiio6OVlpZ2wd/bt2+fbr/9dh08eFA//vjjBX9uGIaOHTum66+/nqIJ+LiZM2eqrKxMs2bNUrNmzSybo7b5A+Ano0aN0pLFiy0rmtUcDode/P3vdKbyR/avHyH/EegC4mW0c+fO1dChQzV//nyf+awqt9utRx55RJ9//rkKCwsVFxd37s8OHTqk7t27q7S09KJFs1rN925643X/AOrO3/IHwE+q9+8Hr2R7/aWzl+J2u5UxIVNrNm9R4aZN7F8fRv4DAfCeTafTqU6dOumxxx7TtGnTrB7nPOXl5ercubNatmypTz/9VA6HQ99//71uv/12lZSUXLZoVgsKCtIbb7yhJ554wgsTA6gLf8sfAD9xOp3q1LGjhvftqz/929NWj3Oe8opT6jo0Q63atNGny5ezf30Q+Q9ICoSy2adPH3333XfauHGjT97927Bhg1JSUjRz5kzdd999+s1vfqPi4uIrFs3g4GCFhISosrJSLVq00K5du3zy+wMCmT/lDw+MAM7X5557tNe5W+vm5HrlqbN1tXHbNv3m0d+yf30U+Q9IsnvZ/Pjjj9WvXz+tXr1aPXr0sHqcSxo5cqQWLlyomJgYffPNN5LO3rEMCQmRy+WSy+U697WmTZsqISFB7du3V0JCwrlft956qxo0aGDltwGgBn/Kn0WLFmnnzp2KjIy0ehzAJ1Tv3xXvvq3uN99s9TiXNCr7FX382Wrt3LWL/etDyH/gHPuWTcMw1LlzZ7Vp00bz58+3epzL+vbbb9W6dWu5XC41bdpUrVq1UmJiolq1aqVWrVopISFBrVq10g033OCTV8cAnM+f8ufIkSNKSEhQZmamxo0bZ/U4gOUMw1DnX/9arZs31wevvGz1OJd15PgJtX+grzKfe4796yPIf+A89i2by5Yt03333aeCggJ16tTJ6nEua+/evZoyZYoWL16s0tJS7lACfs6f8keSJkyYoJkzZ2rPnj3kDwJe9f79cu4H6pjYzupxruj51/9Tsz/J0x7OH3wC+Q+cx75ls1+/fjpx4oRWrFhh9Si18r//+7+Kj4/XnDlz+OwjwM+RP4D/6vfwwzp2YL+WvfmG1aPUysHDh3Vjn3s1Z84H7F8fQP4D51kQZPUEnnD48GHl5eXp0UcftXqUWouNjVXv3r2Vm5tr9SgArgH5A/ivw4cPK2/ZMmXcf7/Vo9RaTNOm6pWSotzZs60eJeCR/8CFbFk28/LyJEkPP/ywxZPUzaBBg7R8+XJVVFRYPQqAq0T+AP4rLy9PMgz1TUu1epQ6GXj33Vq+YgX712LkP3AhW5bNlStXKiUlRREREVaPUid33nmnKisrtXbtWqtHAXCVyB/Af61cuVK3/SpZEWFhVo9SJz1vu5X96wPIf+BCtiyba9eu1R133OGRtc+cOaMuXbp45E3fcXFxSkxM1Jo1a0xfG4B3eCJ/srOz5XA4zvs1fvx4U49B/gDS2jVr1OPXvzZ93fw1a9VtSIaiUrqpy8BB+uTzz01dP7ZZM7VLSGD/WswT+R8bG3tB/jscDn3yySemHYP8hyfZrmxWVlbK6XQqOTnZI+tPmDBB8fHxHllbkpKSkrR9+3aPrQ/AczyZP+vXr5dhGOd+ZWdnm34M8geBrLKyUs6SEiW1aWPquiu/+lr//PxEZf7L/9Pef6zQU4MHadiEZ009hiT9snUC+9dCnsr/Dh06nJf9x48fV9u2bdW7d29Tj0P+w1NsVzZ37doll8uldu3Mf1z53Llz9etf/1q33nqr6WtXS0xMVFFRkcfWB+A5nswfbyB/EMiq92/bljeYuu6Ut97SU4MH6f47fqPI8DA9+mBftW7RwtRjSFK7li1VtGOH6euidjyV/x999NF5v3/nnXeUkZFh+ueuk//wFNuVzUOHDkk6+7IDM23btk1Op1NDhw41dd2fi42N1ffff+/RYwDwDE/ljyRNnz5dMTExat68ufr376/S0lLTj0H+IJCd279Nm5q25pnKSn295Rs1CA3VbYMGq3HX7uo+dJj+45l/M+0Y1WKaNmX/WshT+d+sWbNz/+1yufTOO+9oxIgRph5DIv/hObYrmydPnpQkU9+cffLkSb3//vvKzMw0bc1LiYyMVHl5ucePA8B8nsifanFxcdqyZYsKCwt1+vRp3X///aqqqjL1GOQPAln1/g038eFAh48dk8vt1pylS/X+Sy/q2xXL1afH7eo3eoz2HTxk2nEkKTI8jP1rIU/mf7VFixapR48eat68uelrk//wFNuVzcrKSklS/fr1TVtz6tSp+tOf/qTg4GA5HA5NmDBBmzdvlsPh0PDhw007jiQ1aNBAZ86cMXVNAN7hifyRpPHjx+tPf/qTYmJi1KJFC/3xj3/U1q1bTX9/DfmDQHZu/5r48sSoRo0kSRkPPKCbWrdWZHiYMv/f43K73fps/XrTjiNJ9UPr68z/fQ/wPk/lf03Tp0/X6NGjPbI2+Q9PsV3ZDPu/K5JmflbQ1KlTz3tz9ssvv6yOHTvKMAy9//77ph1HOntlLDw83NQ1AXiHJ/JH0rm8qVb93w6Hw9TjkD8IZOf27w8/mLdmgwa6PiZaP17kVQhBQebu34pTp0y9K4u68VT+V/vyyy8VGRmppKQkj6xP/sNTbFc2IyMjJclvXwpw4sQJNfq/K6EA/Iun8ufw4cN69tlndeLECX333XcaN26ckpKS1L59e1OPQ/4gkFXv35Mml4UnH3lEM/76X9q6a5dOnjqlqe+8q/qhoep5222mHudERQX710KePv989dVXNWbMGI+sLZH/8JwQqwcw2w03nH2KXGlpqa6//nrT1w8JCZHL5ZJ09q7CggULlJ6ebtr6e/bsOfc9APAvnsqfRYsWacqUKWrVqpXq1aunO+64Q5988olCQsyNcPIHgaz6Z//bA/+rX0RHm7bu6IyhKjt6VPc88a86feaMOrVvryX/+bpiTHwQkSSV7t/P/rWQJ88/S0tLtX37dt19992mrlsT+Q9PsV3ZbNGihSIiIlRUVKRu3bqZvr7ZD+T4uaKiIiUmJnr0GAA8w1P5c9ttt2np0qWmrXcp5A8CWYsWLRQRHq7i0j1K6fgr09YNDgrSy6NH6eXRo0xb82KKv/1WiTf90qPHwKV58vyzZcuW+uabb0xd8+fIf3iK7V5G63A4lJSUpA0bNlg9Sp253W4VFhZ65APhAXge+QP4r+r9u3Gb/32wvdvt1uYdRexfC5H/wMXZrmxKUmpqqlatWmX1GHW2efNmlZWVKS0tzepRAFwl8gfwX6lpaVq9YaPVY9TZluKdKjt6lP1rMfIfuJAty2avXr20fft2OZ1Oq0epk2XLlik6OporS4AfI38A/9WrVy/tcDpVsm+f1aPUyd/XrlV08+bsX4uR/8CFbFk209LSFBsbqzlz5lg9Sp18+OGH6t+/v4KCbPm/BQgI5A/gv9LS0hQbE6O5n+RZPUqdzP/0U/UfMID9azHyH7iQLX+qQkJCNGjQIM2aNevck2N93bp167R161ZlZGRYPQqAa0D+AP4rJCREgwYP1pxPPpHL7bZ6nFr5assW/c/OXexfH0D+AxdyGDU/KdxGnE6nEhMTNXv2bA0aNMjqca6ob9++OnTokL788kurRwFwjcgfwH9V798Zk1/QwHs891ETZvmnMU+r7IfT+vKrr6weBSL/gZ9ZYNuyKUlDhgzR5s2btWnTJtM/j85MGzZs0K233qolS5bo/vvvt3ocACYgfwD/NWTIEG36+it9/eFchQQHWz3OJW3ctk23ZzzK/vUx5D9wjr3L5q5du5ScnKyXXnpJTz/9tNXjXJTb7Va3bt0UGhqq1atXy+FwWD0SABOQP4D/2rVrl5I7dNALI5/UqKFDrB7notxut1J/+5jqX3edVn/+OfvXh5D/wDkLbPmezWpt2rTRuHHjlJWV5bNPBsvJydHGjRuVk5PDRgdshPwB/FebNm00bvx4vfjW2z77ZNq/zF+ggu3blfPGG+xfH0P+Az+x9Z1NSTp9+rS6du2qkJAQrV27VqGhoVaPdE5BQYG6deumCRMmaNKkSVaPA8Bk5A/gv06fPq2uKSkKrqrSqvfeVWi9elaPdE7hjh1KHf7PmpCZyf71UeQ/IMnuL6OtVlxcrFtuuUXp6emaMWOGT1zBOXDggLp3766EhAQtX76cx00DNkX+AP6ruLhYt3TurId79dRbE5/3if37v2VlSv3nx9S6bTstX7GC/evDyH9AC4KzsrKyrJ7C05o2baqOHTsqMzNTp06d0p133mnpPMeOHVPv3r1lGIaWLVum8PBwS+cB4DnkD+C/mjZtqo6dOum5KS/q1A8/qOdtt1k6z7Hyct375FNSvXpalp/P/vVx5D+gbQFRNiWpbdu2atWqlcaOHatjx47p7rvvtuQK04EDB9S7d2+VlJRo6NChevDBB70+AwDvIn8A/1W9f8e9MFnHTpSrd9cUS/bv/5aV6d4nn9KRkye16rPP9Itf/MLrM6DuyH8EuMApm5LUsWNH3XTTTXr22Wf1zTff6J577lH9+vW9dvyCggLdc889MgxDjz32mF5++WXVr19fPXr08NoMAKxB/gD+q3r/Pjd1qrbu3Km7unVT/VDvvYezcMcOPfDU76R69bRy1Sq1atXKa8fGtSP/EcC2BdwLtQcMGKBly5bp888/V+fOnbV+/XqPH9Ptduv1119Xt27dlJCQoDVr1mjy5MmaNm2aMjMz9fLLL3t8BgDWI38A/1W9f9ds3qKuQzO04X+2efyYbrdbb3w0T6nD/1mt27bTmrVrKZp+ivxHoAqoO5vVEhISNGTIEK1cuVLPP/+8Dh48qK5du6phw4amH2vDhg3q16+f3n//fT377LN65513FBERIUlKSUlRVFSUxo4dyxUmIECQP4D/SkhI0JChQ7Xys8+U9ec/69CRI7ot+Vdq2MD8u1Qbt23TI/82Vrl/W3p2/7777rn9C/9E/iMABdbLaGuKjIxURkaGWrdurenTp+s//uM/dOLECXXo0MGUMP/yyy/15JNP6plnnlHr1q21ZMkSDRgw4IKnfrHhgcBD/gD+KzIyUhnDhql169Z6/e13NH32bJ04eVJJbW5URFjYNa//9Tff6PfZr2jC9D+rdbt2l9y/8E/kPwJM4JZNSXI4HOrYsaOOHj2qnTt3av369Zo6daq++uoruVwuRUdHKzIyslZrud1ubd68We+9955GjBih7OxsNWnSRG+++aamTp2qmJiYS/5bNjwQeMgfwH9V798nRoxQg4YN9ZdZs/TKu+/q62/+5+z+bdKk1sXT7XZrS/FOzVq8WL97OVt/em+mmsbGnt2/L7982f0L/0T+I4BsC4jP2byc48ePKyEhQaNHj9bYsWO1ePFi5ebmavny5aqsrFRiYqI6dOigdu3aKS4uThEREQoPD9exY8dUXl6ukpISFRcXq7CwUGVlZWrevLkGDBigjIwM3VbHR6RPnz5dY8aM0dSpUzVhwgQPfccAfAX5A9jD6dOnz+7f2bO1fMUKVVZWql1CgpJat1bbljcotlkzRYQ1VFjDhjpeXq7yilPas2+/du79Vpt3FKns6FE1b9ZMAwYOvKr9C/9D/iNALAj4spmVlaXp06drz549ioqKOvf1iooKrV27Vl988YV27Nih4uJiHTx4UBUVFTp58qQaN26siIgIxcfHq3379kpOTlZaWpqSk5Ov6aUubHggcJA/gP1csH+Lin7avxUVahwV9dP+vekm0/Yv/Av5jwAR2GWz5lWliRMnWj3OOWx4wP7IHwAITOQ/AsiCEKsnsNK0adPkdrv1+9//3upRzjN69GhJ0pgxYySJDQ/YEPkDAIGJ/EcgCdiyefz4cb322mt6+umnz3v5gq9gwwP2Rf4AQGAi/xFoArZs+upVpZrY8IA9kT8AEJjIfwSagCybvn5VqSY2PGAv5A8ABCbyH4EoIMumP1xVqokND9gH+QMAgYn8RyAKuLLpT1eVamLDA/6P/AGAwET+I1AFXNn0t6tKNbHhAf9G/gBAYCL/EagCqmz661WlmtjwgH8ifwAgMJH/CGQBVTb9+apSTWx4wP+QPwAQmMh/BLKAKZt2uKpUExse8B/kDwAEJvIfgS5gyqZdrirVxIYH/AP5AwCBifxHoAuIsmm3q0o1seEB30b+AEBgIv+BACmbdryqVBMbHvBd5A8ABCbyHwiAsmnnq0o1seEB30P+AEBgIv+Bs2xfNu1+VakmNjzgW8gfAAhM5D9wlq3LZqBcVaqJDQ/4BvKH/AEQmMh/8h8/sXXZDKSrSjWx4QHrkT/kD4DARP6T//iJbctmIF5VqokND1iH/CF/AAQm8p/8x/lsWzYD9apSTWx4wBrkD/kDIDCR/+Q/zmfLshnoV5VqYsMD3kX+/IT8ARBIyP+fkP+oZsuyyVWl87HhAe8hf85H/gAIFOT/+ch/SDYsm1xVujg2POB55M/FkT8A7I78vzjyH7Yrm1xVujQ2POBZ5M+lkT8A7Iz8vzTyP7DZqmxyVenK2PCAZ5A/V0b+ALAj8v/KyP/AZauyyVWl2mHDA+Yjf2qH/AFgN+R/7ZD/gck2ZZOrSnXDhgfMQ/7UDfkDwC7I/7oh/wOPbcomV5Xqjg0PmIP8qTvyB4AdkP91R/4HFluUTa4qXT02PHBtyJ+rR/4A8Gfk/9Uj/wOHLcomV5WuDRseuHrkz7UhfwD4K/L/2pD/gcHvyyZXlczBhgfqjvwxB/kDwN+Q/+Yg/+3P78smV5XMw4YH6ob8MQ/5A8CfkP/mIf/tza/LJleVzMeGB2qH/DEf+QPAH5D/5iP/7cuvyyZXlTyDDQ9cGfnjGeQPAF9H/nsG+W9PwVlZWVlWD3ElRUVFaty4sYKCgs597fjx4xo8eLDGjBmju+++28Lp7CklJUVRUVEaO3as6tevrx49elg9EmAJ8sf7yB8AvoD89z7y33a2+UXZfOyxx/T888+radOmSkpKUlBQkLKzs7Vu3Tp9+OGHatCggdUj2hIbHiB/rEL+ALAa+W8N8t9WtsnwAzfddJPhcDgMh8NhJCQkGG+99ZbRuHFj44UXXrB6tIAwbdo0Q5IxdepUq0cBvI78sRb5A8Aq5L+1yH9bmO8X79n89ttvZRiGJKm0tFQjRoxQRESErrvuOlVVVSkkxC++Db/Fa+gRyMgfa5E/AKxC/luL/LcHn38Z7dGjR/Xiiy+e+331pq+qqlJ+fr7ee+89RUREqGPHjue9ph7m4iUNCETkj28gfwB4G/nvG8h/v7fN53dHSUnJRb/udrtlGIb279+vESNG6KabblJRUZGXpwsso0eP1rRp05SZmamXX37Z6nEAjyN/fAf5A8CbyH/fQf77N5+//79nzx45HI5zV5R+zu12y+FwqG/fvmrXrp2Xpws8tXlJg8vlUkFBgbp06eLV2QCzkT++hfwB4C3kv28h//2Xz5fNkpIS1atXT5WVlRf9c4fDobFjxyo7O9vLkwWuy214l8ulIUOGaN26ddq9ezfvZ4BfI398D/kDwBvIf99D/vsnn3/P5ty5c7Vx40a53e4L/oyNbp2LvYa+eqMvXLhQx48f14033qiOHTtaPSpw1cgf30T+APA08t83kf9+Z5vP1/7du3frxx9/vOifTZ48Wc8995yXJ0K1mleY3G63tm3bpoULF8rlcikoKEiTJ0/W0KFDeeM8/Bb547vIHwCeRP77LvLfv/h82dy5c+cFX3M4HHr11VfP/bDBOqNHj1ZVVZVef/117du3Ty6XS9LZ9zI4nU799a9/VXp6usVTAleH/PFt5A8ATyH/fRv57z98vvLv27fv3H87HA45HA699tprbHQf4XK5VFhYeN5Gr+ZwODRp0qRLvrke8HXkj28jfwB4Cvnv28h//+EwvPB/orKyUrt27dLBgwd16tQpnTp1SlFRUQoLC1N8fLzi4+PlcDgu+HcHDx5UbGzsud8HBQXp3Xff1W9/+1tPj4xacLlcGjZsmObNm3fBRq9p6dKluu+++676OFf78wNI5I9dkT8AroT8tyfy368s8EjZPHz4sPLy8rRq1Sp98cUXKikpuewPQ1h4mDp06KC01DT16tVLaWlpCgkJ0VdffaWUlBRJZzd6bm6uBg8ebPa4uAo134x9uf+3wcHBuvnmm7V+/fpar13z52fNmjVyOp2XPUZ4eLg6dOig1NTU835+EJh++vlZqc8+X6XSPXvldl34gIdqDcMaKCnpl+rVszf54yfIHwAXU9fzz/CwcCV16KC0tFTy30+Q/37HvLJpGIby8/P19ttvKS9vJjnkSgAAIABJREFUmeSQOnbuqC7duqhN4o1KuDFBzWKaq2HDBmoY1lDlx8t16tQP2r93n0p279G2zf+jr9d+rd07nYqOidaQwUPUsmVLjR49WsHBwfroo4947bUPWb9+vdLT07V3715JuuJLFf7xj3+oZ8+el/zzn35+3lZeXp4cDodSUlKUmpqqpKQkJSYmKi4uTmFhYQoPD9exY8dUUVGhPXv2qKioSBs3btTKlSu1Y8cOxcTEaPDgwRo5cqRuvPFGU79v+Kbqn5+/vPWmluUtkyFDMe3qq/lNDkXFh+i6X4SoYVSQQuo7FFLfocoKQ1VnDJ383qXj+6t02Fml77cbOrz3BzVr3kQZQx8lf3wY+QOg2s/3r+TQrzt2VkqXrmrXJlGtE25UdLMYNWzYUGENw3Si/IROnTql7/bvlbNkl77ZtkX//fVa7dq9U9HRMRoyZDD578PIf79jTtlcvHixJmVN0pbNW3Tb7bfpwQEPqvd9d6phWMM6r/Xdt/v0twVLtHj+Eu3be/b18jk5ORoxYsS1jgmTud1uLVq0SJmZmdq9e7eCgoIuegUoJCRE3bt312effXbRdRYvXqysrCxt3rxZPXv21KOPPqp+/fopPDy8zjOVlJQoNzdXs2bNUmlpqQYOHKisrCy1bdu2zmvBPyxevFjPT3xWW7/5H12fHKaEHvXU8rb6Cqlf95e2nDzk0u7PT6vkiyodP3RGDjnIHx9F/gBYvHixJk3K0pYtm9X9ttv1Tw8O0D2971VYw7A6r7X3u2/1178t1KLF87V339kiQ/77JvLfr1xb2XQ6nRr51Ej9Pf/vuuuBu/Qvv/9/at+hvSmTuVxu/evQf5Wz2Kmjh49q3LhxGj9+vBo0aGDK+jCP2+3WJ598ookTJ2rTpk0KCQlRVVXVBX9vzZo16t69+7nfO51OPfXUU8rPz1d6eroyMzPVqVMnU2ZyuVyaP3++XnzxRTmdTn5+bMjpdOrJkf+qT/++XK1SGir5oYZq0sqcl68Ybml59lGV75POlEsTxk/g58dHkT9A4HE6nXpq5FPK/3u+7r3rfj31L6P0y/ZJpqztcrk0/F+Hardzpw4fPcz+9WHkv1+4+rK5aNEiPfb4Y2rSrImee/lZpfRIMXs4HSk7ouuirtPcmR/qP//4n7rhhhs0f958JSWZEygw34oVK5SZman169eft+lDQkJ05513atmyZZLO/vw8/vjjiomJUU5Ojnr16uWReaqqqpSTk6OJEycqPj5e8+bN4+fHBhYtWqTf/vNwhfx/9u48Lqp6/+P4a2DYwQUBNVEUFPfcFTRTNC1btLoKgmDe9puU3frVTXPL1lup7bc0c2vVTDFDFMXcsu26r4TgvrKILMIsZ35/0FhdAYEZ5szyeT4ePh7B0Pf74fg9b7/ne7YAPX3v96V5F0+r91FWqODp78bhdaXs/bqM1mHhfL1shYwfOyb5I4TzW7FiBQ888CBBgUG8OPUVBkQNtHofefm5NGzYiCWfL2TOe2/QslUrli2T/deeSf7breW1fvWJoig8/vjjjBkzhlGxI1m56Zt6OdAECAwKxF3rTtJDiazY8DXunu5ERUf9fk2+sEe33HILP//8Mxs3bry6iuTp6YnBYGDdunXs3Lnz6viZMGECe/furbcdHSpCZtKkSezatQtfX1+io6Nl/DgwRVFIfjyZMWPG0Gqgibteb1gvB5oA3g3dcHOHTrf7cserDSnQn6BfVF8ZP3ZM8kcI5/Xn+efoUWNYtzKjXg40AZoEBqF113J/0kOkrkjHw92D6CjZf+2Z5L/9qtWZTZ1OR1JSEimrU3jtvVcZfufw+qztGnq9nheemcWaFWtYsGABSUlJNu1f1N6OHTt48cUXSUtLw2QyERoaSm5uLkuXLrX5Dfc6nY5HH32UTz/9VMaPA9LpdCQmjmNVykoGTPSndZRtL0lRDCZ2fFxMztZyPvlkoYwfByD5I4RzuDr/TEnhrdfe4/bhd9q0f71ez5QXnmXlmhWy/zoIyX+7sbzGNzgpikJSUhKpa1P56PMP6dO/T30WVikPDw9enDuLwKBAJkyYgKenJ3FxcTavQ9SceSVn586djBo1ilOnTrF48WJVnuzm6enJggULCAkJkfHjYBRFITFxHN+mpjB0cgOadaqfs5nVcdNqGPBIAN4NNNw34T4ZPw5A8kcIx2eef65NXcuSjz4nqk9/m9fg4eHB6y/OoUlgkOy/DkLy337U+GBz0qRJpKxOUe1A00yj0fDU1H+i1+kYP348ISEhxMTEqFaPqJmFCxeSm5vL4sWLCQoKUq0OjUbDa6+9Rnl5uYwfBzJp0hOsSlmp2oHmVRroleCPooekpEQZPw5C8kcIxzVp0iRSUlJUO9A002g0PPfU8+j0sv86Esl/9dXoMtrPP/+cxMRE5syfbfNLZ6uiKAr/9+gz7PppF7t37aZ58+ZqlySqYB4/y5Yts5t3VSmKwtixY9myZQu7du2S8WPHzONn0JMNbH7pbFVMJtjydhFFWT7s3bNPxo8dk/wRwnGZ998P5syz+aWzVVEUheT/e5Rfdv3M7t2y/9ozyX+7cP2n0WZnZ9Otezfujb+Hf836l60Kq5GS4hJih8cRER5B+vp0NJrav1dP1K/s7Gy6d+/OAw88wNy5c9Uu5y+Kioro1asXYWFhrF+/XsaPHcrOzubGbl1pPUhDn/H+apfzF/orJlKnXKZHxyg2pGfI+LFDkj9COK7s7Gy6d+tO7L1jmf6vWWqX8xclJcXcEXsr4RHhpKfL/muPJP/txnL3mTNnzqzuJ+IT4jGaDMz5eA7u7u42qqtmPD096d67G7Nfnk14eDjdunVTuyTxPxISEnBzc2P58uV2N368vLyIjo5m6tSpMn7s1Nj4OHJLTzDoSX80bvYVxu4eGoIi3UlfcJjw8AgZP3ZI8kcIx5UQn4BiVPjPnI/tbv/19PSkZ/fevDb7Zdl/7ZTkv904WO2ZzVWrVnHvvfeyeOUiekX1smVhtfLScy+xcW0GWb9lERAQoHY54nfm8bN582YGDqyfx5Nbw8SJE1mxYgW//fabjB87Yh4/t81sRNMOKt6neR0/flJE7k4fso/myPixI5I/Qjgu8/67bPFK+vbqp3Y5VZr20mTSNq4lK0v2X3si+W9Xqn7Ppslk4oVZLzD8ruF2faAJ8Phzj1NaWsoHH3ygdinidyaTiVmzZjF69Gi73tEBXnzxRa5cuSLjx46YTCZmzJxOmygfuz7QBOgR60dx6WUZP3ZE8kcIx2UymXjhhVncPvxOuz7QBHj68X9xReafdkXy3/5UebCZlpbGnt17ePiJh2xZT500bNSQsRPGMmfuHMrKytQuR1Axfnbv3s2UKVPULuW6AgMDeeyxx5g7d66MHzuRlpbGvr376HK3j9qlXJeXvxvthnny5uw3ZPzYCckfIRxXWloae/bsJvnhSWqXcl2NGjYiaewE5syR/ddeSP7bnyoPNufPn0/UTf3o0KWDLeups6SHEsnPyyclJUXtUgQV42fIkCF0795d7VJqZNKkSeTl5cn4sRMfzfuIFl19CWxd47czqarTCF/y8wtk/NgJyR8hHNf8+fMZEHUTnTp0VruUGrk/6UHy82X/tReS//an0oPNvLw8UlNTGRk7ytb11FlQSBD9B0WzZOkStUtxeebxc99996ldSo01a9aMYcOGsXTpUrVLcXnm8dNmoIfapdSYTyM3WnTzYvGSRWqX4vIkf4RwXOb9928jY9UupcaCg0IY2P9mli6R/Vdtkv/2qdKDzdTUVEyYuOX2obauxyIj7r6dDekbKCkpUbsUl5aamgrAPffco3IltRMfH096erqMH5WlpqZiMim06uuldim10jraU/LHDkj+COG4KvIfbr1lhNql1MrIEfeQvkH2X7VJ/tunSg82MzIy6NarG75+vrauxyLRN0eh0+nYvn272qW4tIyMDKKiovD3t6/3Il7PLbfcIuPHDmRkbKRppBce3vb1qpPruaGrJ3q9QcaPyiR/hHBcGRkZ9OzWCz9fP7VLqZWbogfK/msHJP/tU6UHm9u2baN3dG+rdnTy2En+Me4xotpH06tNb2KHx7ItY5tV+whuGkx42zZs22bddkXtbN++nUGDBlm1zfPnz5OUlETTpk3x9/fn3nvv5dy5c1bto3nz5rRv317Gj8o2b/2eoI6WH2gqBhNb3i3ku+fzr/3QBLu+KubLhy7y6fgLfD+3kPIixaL+fBq70STUR8aPyqyVPzqdjnHjxhEVFVWnz2tL8keIivlnv96W71N6vZ4nnp3I3fF3XPPZ8ZPHeHrKJLpGtadTn7aMThrFf3f/YlF/IcFNiQhvK/uvymyR/9999x39+/fH29ubli1b8tRTT1n8cB9nz/9rDjZ1Oh05OTlEdmxn1Y5envIKikkhdft3bD+4jcHDB/Pkg//EoDdYtZ+I9hEcOnTIqm2KmtPpdGRnZ9O1a1ertjt69GgKCgrYs2cPR48eRafT1cs1+Z07d5bxoyKdTsfxYydp3NKyBwOVFytsfOMSl05Vni+H00vJzLjCsMmN+NvbQZQVKfww77JFfQIEtICDBw9Y3I6oG2vlT35+PqNGjaoyC673eV1J/ghXZp5/dojsaFE7lwov8WDyfWRlZ1b6+eSZz+Lm7s729F/4YcOvtAxtxTNTn7KoT4DIiEjZf1Vki/wvLi7mrrvu4tFHHyUvL49vvvmGzz//nMmTJ1vUJzh3/l9zsJmVlYXRaKR1eGurdtT0hqbXfC+kWQjuWner9tM6og2HDx+2apui5szjJzIy0mptnj17lm3btjFlyhSaNWtG06ZNmTFjBuvXr+fIkSNW6wegffv2Vm9T1FxWVhaKUaHhDZYdbF4+ayTq/ga06l35fZ8HU0vpeJsvTcI98GnsRu8Ef078Uk7xRaNF/TZo7sbBw3KwqRZr5U9mZibvv/8+I0eOrNPndSX5I1yZef9t0zrconZyjh3lxWmvMizm1ko/12g0THl6Gv5+/lwpu0JpaSm9e/a1qE+A8NZtZf6pIlvlf//+/Rk/fjx+fn706dOHpKQkvv/+e4v6BOfO/2tmdBcuXAAqnu5qTdNfm8b0p2dwc9dBmEwmuvboysIVC9ForHtfVlBIEBdzL1q1TVFz5vHTrFkzq7VpNF57AKDVVgzdzMxM2rdvb7W+mjVrxsWLMn7UYh4/Pg2rfCtTjQS3q/pJtka9ictnjTRp88fPBLbxwGSCS6cM+AfXfQHMp5EbZy/m1vn/F5axVv5c79JYa106+78kf4QrM++/IUEhFrXTo1uvaj//7OOvAOh1843k5ecyelQsr0x/zaI+AYKDgmX/VZEt8t/f3/+aS12Lioqs8poVZ87/a2Z0xcXFAFZ/ONCr017jxLETrPs5jR+P7KBrj65MHD8RvV5v1X78/H0pKiqyapui5szjx5o3Z4eGhtKjRw9eeeUVzp8/z8WLF3nllVdwd3enoKDAav0ABAQEyPhRkXn8aOvx4UBllyvuzfT0/aMPN3fQemkoK7Tsvk2tj4biYud8mpwjqI/8sSXJH+HKrs4/bfRwoF8372Fr2o/kF+TzwETLb8vx8/OnuKjYCpWJulAj/8+fP096ejovvPCCxW05c/5Xes8mgIenp9U6KbtSxleLv+KRSQ/TomULAhoG8H8znibz4BF+2LzDav0AeHl5oSvXWbVNUXPm8ePlZd3XVnz99deYTCYiIyPp2bMnt99+OyaTyapnUAG8vb0pLy+3apui5szjx92j/g42vRtUxJ6u1HT1e4oRDOUmvC08o+ruoUGns+4Cmqi5+sofW5H8Ea7MvP96elhv/lkdjUZDy9BWzJzyIt9v28S+A3stas/Ly4tyney/arF1/hcXF5OYmMiiRYto1aqVxe05c/5fM7Py9a04o3mltNRqnRgMBhRFqfSSWb2VJ2alJaUO98oWZ2IeP9Z+V9BTTz3F+++/T2FhISdPniQyMhJPT0/69etn1X6Ki4vx83OsR647E/P4MZSbrvOTdefuoaFBc3fyjv2RPfk5ejQaaBRq2b2ihjITPr7elpYo6qi+8sdWJH+EK7s6/7xivfnn/zIYDYz42y1/+Z7H7we3pRb2W1pa6nCvbHEmtsz/M2fOEB8fzyuvvMLAgQOt0qYz5/81B5sBAQEAlBRbb2f3D/CnR98efPTWPM6cOkPR5WLmvDgHH19fevSx/DrnPysuKqZBQAOrtilqzjx+6uNSgJdeeomioiJ2797NY489xjPPPEPDhg2t2sfly5dp0EDGj1rM40d/pf4ONgE63e7LobRS8nL0XLmk8N8vimnVx8ui+zWhou6AAMe8hNMZ1Gf+2ILkj3Bl5v23uJ4PFg4ePsCCJfMpKSnm3PlzvPDqNIKDQujSsYtF7RYXFxHQIMBKVYraslX+7927l+TkZD766CP69OkDwODBgy1u15nz/5plfPOp4LOnztC0uWU3af/Zmx++wesz3iDu1jjKy3VEdorkg0/fp0lwE6v1AXD65BlahVl+OlvUjXn8HD9+nBYtWlit3ddee41JkyZdfRrto48+yjPPPGO19s2OHTtmlcshRN2Yt31xrhHfwLpf0lp42sDKp/Kufr0o7jz9/h5Ax9sqVj47DPOltEAh/ZVLGMpNhPbwIvpByycJxReNhLUKs7gdUTfWyp/Dhw/TseMfr1/QaDS8++67JCcn1+jzupL8Ea7MPPZPnz1Js6Z1v0XmaE4WQ+7842xTWOfmzHr+Ze5LuB+tu5Yl877gwwXvM/eDN9G6u9Otaw+Wzv8CPz/LFgpPnj5JK8l/1dgi/3Nzc7npppsoKipi5cqVFtf8Z86c/9ccbIaGhuLn70fO0Ry6W/GsY7MbmjFn/myrtVeVY0eP0aF9h3rvR1QuNDQUf39/jhw5Qv/+/a3WbocOHVi3bp3V2qvKkSNHrPp0W1E7oaGh+Pr5UHjGQEhk1U+UvZ6GLbRM+Ora1y1dpYGecf70jLPuWciisxDdy7LVcVF31sqfDh06YDJVfXb9ep/XleSPcGWhoaH4+/lzNOcovbr3qXM7EW3acvzA2So/HzRgMIMGDK5z+1XJPnaUDh1k/1WLLfI/KCiIy5ctfyd3ZZw5/685daDRaOjcuTMHdjveu+IUReHQ/kMWv9BV1J15/Pz6669ql1JriqKwa9cuGT8q0mg0dOrUkbyjBrVLqTWTCQqOGWT8qEjyRwjHpdFo6NS5M/sO7FG7lFpTFIUDh/bL/qsiyX/7Vel1ajGDY/j5h19sXYvFjhw4QkFeATExMWqX4tIGDx7Mpk2b1C6j1vbs2UNubq6MH5UNHTKMi4fq957N+lBw3EBJoU7Gj8okf4RwXDExg9nx8w9ql1Frh44cJL8gT/ZflUn+26dKDzaHDh3K0cyjnDp+ytb1WGRrxjaCQ4KddmXAUQwdOpRDhw6RnZ2tdim1snbtWkJCQmT8qGzo0KHknbxC0Xmj2qXUyqld5TQJCpTxozLJHyEc19ChQ/ntaCYnTh1Xu5Ra2bR1I8HBsv+qTfLfPlV+ZjMmhqbNmvLt19/auh6LrF2VSuyYWNzcLHtXnrBMTEwMzZo149NPP1W7lFr54osvGDNmjIwflcXExBAc0oTsrWVql1IrJ3YYGRsXL+NHZZI/QjiumJgYmjZtxspvV6hdSq18u3YVsbGy/6pN8t8+VfpbabVaEuITSFm2GqNRsXVNdbL71z1kHvqNpKQktUtxeVqtlvj4eBYvXozR6Bhnp3bs2MH+/ftl/NgBrVZL4rjx5Gw1YHKM+OFipp7c41dk/NgByR8hHJdWqyUhIZ4VKcscZv/duftXDmcelv3XDkj+2yeNqYpHLmVnZ9O+fXteffcVbr/ndlvXVWvJ4x+npLCEn378Se1SBH+MnyVLlhAfH692Odc1cuRILly4wI8//qh2KYKK8RMZGcmAif6ED/BWu5zr2vRGEcGajvzys+M9mMAZSf4I4bjM+++cV99h1O33qF3OdT2QfB+XSwr56SfZf+2B5L/dWV7l+drw8HBiY2OZ9/Z8jAb7Xh04sOcA36d/z7Sp09QuRfzOPH5efvllDAb7frLor7/+ypo1a5g6darapYjfVYyfMRxYVY5i3/FDbraeE/8tZcb0mWqXIn4n+SOE4zLvv+/PexuD0b73370H9rDx+3SmTZP9115I/tufKs9sAmRlZdG1a1eeeO5x7nv0PlvWVWOKopB4ZyIBfg3YsnkLGo1G7ZLE78zj5+WXX+app55Su5xKKYpC//798fT0ZPPmzTJ+7EhWVhadu3SmW6wXne/0VbucSplMkDb9MhEh3dm2ZbuMHzsi+SOE4zLvv//3xHM8dN8japdTKUVRuDfxLvwD/Ni8RfZfeyL5b1eWu8+cOXNmVZ8GBgZiMBh4e/bbjBg1ggaNGtiwtpr5/JPPWfVVCqtXr6Zp02pe4i5szjx+Xn31VeLi4mjcuLHaJV3jvffeY9GiRTJ+7FBgYCBGg5EVH2+idbQnXv72d+P84XWlZH1fxppv18j4sTOSP0I4LvP+O/ft2dw1YhQNGzRSu6RrLP78E5av+kr2Xzsk+W9XDlZ7ZhOgrKyMqOgojBj59NuleHh42Kq46zq47yDj7kxkyuQpzJgxQ+1yRCXKysqIjo5Gq9Wyfft2PD091S7pqp07d9K/f38mT54s48dOlZWV0bdfHy6UHuXWFwJw09rPyl9ejp610wqZ+vw0GT92SvJHCMdVVlZGVFQ0JiN88+lqu5p/7j+4j3vG3cWUKbL/2ivJf7ux/LoHmwCZmZn06t2LYXcM48W5s+ziVO/F8xdJHJlEu4h2bEjf4LSPC3YGmZmZ9O7dm9GjR7NgwQK7GD9nz55lwIABtGnThvT0dBk/diwzM5OevXpwQx8Y8EgAqD98uFKgsG5mEd079mXjhk0yfuyY5I8QjiszM5PevXozYtgdvP7iHLvYfy9cPM/fEkcS0a4tGzbI/mvPJP/tQvWX0Zo1adKE7t26M2vGLK6UXiH65mgb1Fa1osIiHox9CK2blrS1afj5+alaj6hekyZN6NatG1OmTKG0tJRbbrlF1XouXbrEsGHDMJlMrF27VsaPnWvSpAndu/fgP//+FH25wg1d1V2d1JWY2PhKMYE+LViXli7jx85J/gjhuJo0aUK37t2YOWsGV65c4abom1Wt53LRZcY9GIeb1p20NNl/7Z3kv104WKODTYB27drRunVrZj4/k6LCywwYPECVFYKL5y/yYOxDFBUW8f2m77nhhhtsXoOoPfP4efbZZ7l06RK33nqrKuPn7NmzDBs2jLy8PDZt2iTjx0G0a9eONm3aMO/15ehLTbS40VOVM5xXChQ2vlKEtrwRWzZvlfHjICR/hHBc5v132sznuVxUyM0DBquy/164eJ5xD8ZRWFTI99/L/usoJP9Vd1Bbm59OSkrCy8uL8ePHc/7cBV6cMws/f9sdlR/cd5B/PvgUvt6+bNu6jbCwMJv1LSz35/Fz+vRpFixYQEBAgM3637lzJ6NHj8bT05OtW7fK+HEw5vGTmJRIaX4R/R/xx8PHdv9g5OXo2fpWKUEBLUjP2CDjx8FI/gjhuP68/547f443XpyDn5+/zfrff3Af//jng3j7+rBtm+y/jkbyX121vlA4NjaWtWvXsuunXcQOj2P/7v31UddfKIrCZws+Y9ydibSLaMf2bdtp3bp1vfcrrM88frZs2UKvXr345Zdf6r1PRVF499136d+/P23atGHbtm0yfhxUbGws69LWUZTlQ+qUy+Qe1dd7nyYTHEorZe20Qrp17MuOH36U8eOgJH+EcFzm/feXXT9zR+yt7Nm/u977VBSFRZ8t4J5xdxHRLoLt22X/dVSS/+qp012pMTEx7N61m/A24STcMY6XnnuJwkuF1q4NgAN7DjDuzkRen/EGUyZPIX19OkFBQfXSl7CNmJgYdu3aRatWrYiOjmbixInk5+fXS1+//vor0dHRPPXUU0yePJn169fL+HFwMTEx7N2zj+4d+pE6tYAfPymivFipl75ys/WkTbvMr0tKmfr8NDamZ8j4cXCSP0I4rpiYGHbv3kWb8Dbck3An016azKXCS/XS194De7hn3J28+PpMpkyZTHq6zD8dneS/Our8CKTmzZuzIX0DCxcuZOPaDIb3uZW5L79F7oVcqxS25797SB7/OHG3jaWBXwN27tzJjBkzcHd3t0r7Ql3NmzcnPT2dhQsX8vXXX9OmTRsmT57MuXPnrNL+jz/+yMiRI+nbty9eXl4yfpxM8+bN2bhhE4sWLSZ3pw8rn7jEf78o5sol6xx0XvxNz6Y3ivhuSj4RTbuza9cuGT9ORPJHCMfVvHlzNmyo2H/TNq7lpuF9+ffcV7iYe8Eq7e/a818eSL6PkXEjCGjgL/uvk5H8t70avfrkeoqKivjggw+YPWc2BfkF9B/cn9tG3kb/QdEENw2uURuKopB5MJMtG7fy3TffkXUki35R/Zj6/FTuuOMOu3hcsagfU6ZM4bPPPqOsrIz8/HyGDx9OXFwcw4YNo3nz5jVqQ1EU9u7dS2pqKp999hkHDx6kW7duZGVlsWPHDrp27VrPv4VQizl/3njzdQoKLhHazZuwaA9u6OqJT+OaraeZTFBw3MCpXeUc/8FI3okr9Onbm+nTZkj+ODnJHyEc19X55+w5FBTkc3P/Qdx52ygG9r+ZkOCmNWpDURQOZx4iY8sGUr5bSWbWEaL6RfH81Ocl/52c5L9N1Ow9mzVVVlZGSkoKS5YuYUP6BnQ6HeFt29C2Q1vCwlsT3DQIXz9ffHx9KCosoqS4hFMnTnM8+ziH9h+iIK+AoOAg4mLjSEpKol+/ftYqTdipwsJC2rRpw5NPPsmzzz5LSkoKS5cuJT09HZ1OR/v27enSpQuRkZE0b94cf39//Pz8uHTpEkVFReTk5JCZmcmuXbvIzc0lODiY2NhYkpKS6Nu3L91yRwMvAAAgAElEQVS7d6djx458+eWXav+qop6Z82fxkkVsSN+AXm+gSagPAaHQoJkbPo3d0Hpr8PDSoCsxoS8zUXTBSPE5KDhmoKRQR2CTxsSPTZD8cRGSP0I4B3P+L12ylPQNFftvRHhb2rdtT5uwCEKCQ/D19cPXx5fLRZcpKSnmxKkT5BzP5sCh/eQX5BEUFExcXKzkv4uQ/LcZ6x5s/llJSQnbt29n69atHD58mCNHjnD+/HlKSksoKS6hUeNG+Pv507JVSzp26EjXrl2JiYmha9eurvCCU/G7mTNn8tZbb3Hs2DEaNWp09fv/O34yMzMrxk9JCcXFxTRu3Bh/f39atmxJhw4dqhw/y5cvZ+zYsezevVtWl1zIn8fPoUMHOXTkIBfOX6C09AqlJVdo0DAAP39fWrZsRZdOXSV/XJTkjxDOp6r5Z2lJKcUlxTRq1Bh/fz9atmxFx45V77/CuUn+20z9HWwKcT1/XlWaPn16vfRhMplkdUkIcQ3JHyGEcE2S/za1XJZwhGrmzp2Loig88cQT9daHRqNh6tSpLF++nH379tVbP0IIxyL5I4QQrkny37bkzKZQhS1WlcxkdUkI8WeSP0II4Zok/21OzmwKddhiVclMVpeEEH8m+SOEEK5J8t/25MymsDlbriqZyeqSEAIkf4QQwlVJ/qtCzmwK27PlqpKZrC4JIUDyRwghXJXkvzrkzKawKTVWlcxkdUkI1yb5I4QQrknyXzVyZlPYlhqrSmayuiSEa5P8EUII1yT5rx45sylsRs1VJTMXX10SwmVJ/gghhGuS/FeVnNkUtqPmqpKZq68uCeGqJH+EEMI1Sf6rS85sCpuwh1UlMxdeXRLCJUn+CCGEa5L8V52c2RS2YQ+rSmauvLokhCuS/BFCCNck+a8+ObMp6p09rSqZuejqkhAuR/JHCCFck+S/XZAzm6L+2dOqkpmrri4J4Wokf4QQwjVJ/tsHObMp6pU9riqZueDqkhAuRfJHCCFck+S/3ZAzm6J+2eOqkpkrri4J4Uokf4QQwjVJ/tsPObMp6o09ryqZudjqkhAuQ/JHCCFck+S/XZEzm6L+2POqkpmrrS4J4Sokf4QQwjVJ/tsXObMp6oUjrCqZudDqkhAuQfJHCCFck+S/3ZEzm6J+OMKqkpkrrS4J4Qokf4QQwjVJ/tsfObMprM6RVpXMXGR1SQinJ/kjhBCuSfLfLsmZTWF9jrSqZOYqq0tCODvJHyGEcE2S//ZJzmwKq3LEVSUzF1hdEsKpSf4IIYRrkvy3W3JmU1iXI64qmbnC6pIQzkzyRwghXJPkv/2SM5vCahx5VcnMyVeXhHBakj9CCOGaJP/tmpzZFNbjyKtKZs6+uiSEs5L8EUII1yT5b9/kzKawCmdYVTJz4tUlIZyS5I8QQrgmyX+7J2c2hXU4w6qSmTOvLgnhjCR/hBDCNUn+2z85syks5kyrSmZOurokhNOR/BFCCNck+e8Q5MymsJwzrSqZOevqkhDORvJHCCFck+S/Y5Azm8IizriqZOaEq0tCOBXJHyGEcE2S/w5DzmwKyzjjqpKZM64uCeFMJH+EEMI1Sf47DjmzKerMmVeVzJxsdUkIpyH5I4QQrkny36HImU1Rd868qmTmbKtLQjgLyR8hhHBNkv+ORQ42xXUdOXIEo9H4l+8VFhbyzjvv8NRTT9GoUSOVKrON0aNH06VLF15++eVrPsvLy+P8+fMqVCWEa5D8kfwRQrgmyX/nyH852BTX9eyzzxIZGcmnn356dad3hVUls8pWl/Ly8pgyZQphYWFs3LhR5QqFcF6SP5I/QgjXJPnvHPkv92yK6+rUqROHDx8GoHXr1jz33HM899xzTn2t/P8yXzsfERFBhw4dePvtt9Hr9SiKwqxZs5gyZYraJQrhlCR/JH+EEK5J8t8p8n+5Vu0KhP07ceIE5jWJ48eP8+ijj+Lv70/Dhg0xGAxotc4/jPLz87nxxhtZvnw5a9asQa/XA6DVajl27Ji6xQnhxCR/JH+EEK5J8t858l8uoxXVKigooKSk5OrXiqJgMpkoKSnhn//8J23atGHevHkYDAYVq6w/eXl5zJw5k7CwML766ivKy8uv7ugABoOB3377TcUKhXBekj+SP0II1yT57zz5L5fRimrt3LmTXr16Vfm5m5sbJpOJiIgI1qxZQ/v27W1YXf1auHAhycnJ6HS6asMsNDSUkydP2rAyIVyD5I/kjxDCNUn+O03+y6tPRPWOHTuGRqOp8nNFUQAYOXIkkZGRtirLJu666y4iIiKq/f0Bzp49e83T0oQQlpP8kfwRQrgmyX/nyX852BTVysnJwcPDo8rPNRoNzz77LLNnz77uTuFogoKC2LJlC926dat2GxiNRs6cOWPDyoRwDZI/kj9CCNck+e88+S8Hm6JaOTk5VHWltXlHf+2112xcle00atSI77//nqioqGp3+JycHBtWJYRrkPyR/BFCuCbJf+fJfznYFNU6evToX25I/rNZs2Y59Y5u5ufnR1paGgMGDKj0yWfu7u4OsbML4WgkfyR/hBCuSfLfefJfDjZFtSp70pVGo2Hu3LlMnTpVhYrU4evrS2pqKoMGDbpmh3ekx08L4UgkfypI/gghXI3kfwVnyH852BTVOn369NX/1mg0aDQa3nnnHZ588kkVq1KHj48PqampjBgxAnd396vfNxgMDrGyJISjkfz5g+SPEMKVSP7/wdHz3/nfhirQ6XRkZWVx/vx5SktLKS0tpVGjRvj6+tKyZUtatmxZ6c3V58+fp6ys7OrXGo2Gjz/+mL///e+2LN+ueHp6smLFCuLi4li9ejVGoxGj0UhmZmaV/09dt78QzkDyx3okf4QQjkTy33ocOf/lYNMJ5eXlkZqayqZNGWzdnEHO8VMYjUqVP+/n603nzh2JGTKcoUOHEhMTc82peTc3N5YuXUpCQoINfgP75uHhwbJlyxg3bhwrVqzAaDT+ZWXpj+2/iW3btpKdnVPto6n9/Hzp0qULgwfH/GX7C+GIzOM/Y9MmNm3ZysljOSjVjH9vXz86de7MsCExkj81UOP8ydjE1ozvyTl1HKNSTf57+9C5Y2dihg+V/BFCWOTP85/vN2/m+LHjKErV+e/j40vnzp0YOnSo5H8N1Hz+mcHWrRnk5NRg/t+lIzExw+s1/zWmqh71JByKyWQiLS2NeR/9h9TUtYBC9wh3+rTT0/YGaNMMghuCjyf4eEFRKZTq4HQu5JyDA8fh5988OXpaR0hwIOMS7yMsLIwnn3wSd3d3vvzyS0aPHq32r2lXjEYjDz74IIsWLcLNzY1Vq1bxyScLSE1di0YDUX26MnhgLzp3CKd9uzCaNwvC19cbP18fLhUWUVJyhWMnznLkt+P8d/chMjb/yuHMHJo2DSEhYRwTJ04kIiJC7V9TiOsy589/PprH2tRUTIB3u564RUbj0SISbfNw3BuFoPH0QePli1J6GVN5KcbcUxjOHkV3bB+mIz9QeiqLJsEhjE8cJ/lzHZXmz/yPSV27FhQT3d1b0Fd/A20Jog2NCcYfH7T44MFlyrmCntMUkkMBBzjPT56nOaq7SEhgEOPuS5L8EULUiDn/P/zwI9auTcVkgmahYYS0CKNxUFMaBgbj6xeA1sMDrYcnuvIy9HodxYUFFOZfJPfcac6fPkbehXMEBQWTlJQo+X8dleb/gvkV+Y9Cry7uRPXUE9kGIsIgJKhi7u/rA5eLoLQMTp6F7OOw9zD8sNOTrBwdISGBjBt3n7Xzf7kcbDqBlJQUZkx/nr37DhDVUcvdUQaG9awYWLV1KhdW74BVP3lw+qIB0PD+++/z6KOPWr1uZ6AoCrfddhvp6eloNBqGDOrDfQl3cu/IGPx8fWrdXs7xMyz94jsWf/Edx0+cJS4ujpkzZ9KuXbt6qF4Iy6WkpDB1+gwO7NuLb+cBePYfjU/v29B4+da6LePFk5RuX4HuhxWUXzyJBiR/qvGX/EFDlDaMuw0dGU47fKj6UflVOUUhKRwkxeMwp42XiIuNY+asFyR/hBCVSklJYdq06ezfv4/Q1m2J6NSD1pGd0Xp41rqtosICsg7sJPvQHi7l56LRyPyzOn+df8KA3lpG325gxOCKg8raOnkGVqyFr9d6cOqskbi4WGbOnGWN/JeDTUeWnZ3NxIn/YN269dza241HRih0aGmdto0KPPoOHD3vTkGRG/96bgrPPfcc3t7e1unACWRnZ5OcPJG0tHW0jWjJ08mJPHL/vVZp22hUWLYynZde/4TsY6f417+ek+0v7Ep2djb/mJhM+ro0fPvegd+dE/Fo1dk6jStG8uZMQDmbBUV5TH7uXzL+/0d2djYT//EY69avJ0zTmAmmnoylm1XaNmIijSP8x+MXTlHIv6ZI/ggh/pCdnc1jjz3G+vXrCe/QlRv7DaZJSHOrtG0yKaz7ejGF+RcpLytl8nOSP/8rOzub5In/IG3delqHang4wUTiPdZp26jAmg3wziIPTpzGGvN/Odh0VCtWrOCB+yfQxK+MafEGojpav4+8ImjkB59tgndXa2kVFsGy5Svo3NlKE0oHtmLFCh588AGaBjfm/dnPMmRQH3LzLhEc1Niq/RgMRt6fv4zpL39Ey5at+OqrZbL9hepWrFjBhPsfwOAfhH/SS3h1GmD1PpTLubj5NaJ44xJKV84mPKwlK5bL+Iff83/C/TQp82SaIYYoWlHAFQKpw3J2NYwofMZu3tH+SKuI1ixbsVy2vxAubsWKFfz9/vvx8PQhauhd3BBm/cvtr5QW4+Xty8FdO9j9w0Zat27N18slf+D3/H9gAkGNy3jpaQMDekN+ITRpZN1+DEZY/DXMnq+lZasIli2r8/x/ubz6xMEoisLjjyczZsxoRvUrYdX0+jnQBGgSAO5uMH4ofDPVgHt5NlFRfUlNTa2fDh1AxfZ/nDFjxjAh4Q727viCoYP7otForH6gCaDVujPpH/Hs2vYZvt4aoqOjXHr7C3UpikLy7+NfEz2awBfX18uBJoBbgyBw1+I//H4CZ63lpM6DvlHRLj3+FUXh8eRkxowew90l7UgxJBJNKzRg9QNNAHfcGE9PVhrGoc0uJKpvP5fe/kK4MkVRSE6uyP+wyBu5+77H6+VAE8DH1x83Nze69BrAqKRkCi6X0K+fa+fPn+f/Y0aUkL7UwE19QKOx/oEmgNYdHoiDtMUGPDXZRFsw/5czmw5Ep9ORlDiOlJSV/Pt+I7f2sm3/egPM/FTDtz+5seCThSQlJdm2AJXpdDqSkpJYvTqFpfNmMfruoTbuX8+jT77Kp1+tZcGCBS63/YW6dDod4xKTWJmSQsOH38anz+027d9k0FO4eDJlP6xk4SeuN/51Oh1J4xJJWbmK1423cSuRNu1fj5EZmo1863aIBQs/cbntL4Qr0+l0JCYmsmrVKm6+PZY27bvYtH/FaGR7+iqOHtzNJ5+4Xv5UzD8r5v9vzzByxxDb9q/Xw3P/1rBynRsLFtR6/r/cfebMmTPrqTZhRYqiMC4hntTvVvFhspFBXW1fg7sbDOkGV8pNzJi9ig4dOtCli20DRy2KojBu3DjS0lJZs+wtbr+1fs7mVMfd3Z2Rt99MaekVnp08y6W2v1CXoijEJ4wj5bu1NPrnQry72fhfOkDj5o53j2Eo5aUse3OaS41/RVEYF59A6qpv+ch4N4MIt3kN7rgxhAiumPTMWPWBS21/IVyZoigkJCTw7Zo1DLtnPC0j2tu8Bo2bG2FtO6LX6/jo/XdcKn/M8/+1a1exaLaRIf1tX4O7OwwfCFeumJj6Yq3n/wflZVoOYtKkJ0hJWcm8J4z0tf1+fpVGA0//DXQGE+OTEgkJCSEmJka9gmxk0qRJrF6dwtoV7zB4oI1PKf+JRqPhtRcep7xcz/jx411m+wt1PTFpEitTUmj89BK8OkSrV4hGQ4PYyZgMOhKTXGf8T3piEikrVzHfeA99sdJT4OpAAzzNQHQmI+MTk1xm+wvhyiZNmsSqVasY/rcJNG9l+4WuP2joc/NtGA0GkpJcJ38mTXqClNUrWTrXSHRP9erQaGDyRNDpTYwfX7v5v1xG6wA+//xzEhPHMfcRbH7pbFUUEzw9342dxxqxe89+mje3zlPI7FHF9k9k2eLXbH7pbFUURWHs36ew5Ye97Nq126m3v1CXefw3nvgfm186WyWTwqX/JOOd/TP79jj3+P/8889JHJfIW9xp80tnq6Jg4im3VHY2ymX3/r1Ovf2FcGXm/B8yMsHml85WxWQy8f2aLym8eJa9e/c4df6Y5///eRmbXzpbFUWBidPc+HlfI3bvrtH8X55Ga++ys7Pp1q0L90aXMTnWvv6qSspg9MseRHQaQPqGDDQajdolWV12djbdu3fjgaSRzH3tKbXL+Yui4lJ6DUwirE1b1q9Pd8rtL9SVnZ1N127dcR8QS4OEGWqX8xemsmLyZ95BdMdwNm5wzvGfnZ1Nty438reyDkw2DVa7nL8oQcffPD4nYkA30jM2OOX2F8KVZWdnc+ONN9KmYw+ihtyhdjl/odeV8+2nH9D9xi5s2OCc+ZOdnU33bl2Iu7OMGU/a1/y/uBTumOBBm3YDSE+/7vxf7tm0d/HxcRiLs3nrYSPudvbsYE8tdA9XePPT44SHR9Ctm3Xe8WZPEhLicUPP8iWv4e7urnY5f+Hl6UF0v65MfeFtwsPDnXL7C3XFxSdwokSh4cQP0bjZ1/jXaD3RRvTi4OLXiHDS8R8fF48xO5+3jXfgjn39A+CJO92V5rx5/FvCI5xz+wvhysbGx5OXX8iQkfFo3Owrf9zdtQQ3b8m61V877fwnIT4ORZ/Nhy8bsbPpJ54e0KuLwqvv1Gj+f1DObNqxVatWce+997D0GejVTu1qqjbrcw0b9zcm6+gxAgIC1C7Haiq2/71sXjuPgf17qF1OlSY+/W9WrN7Mb79lOdX2F+oyj/+gycvxbN9X7XKqVLhkKl5708g56lzjf9WqVdx7z70sJZbehKpdTpVmaTayofEpso5lO9X2F8KVmfP/jviHaRbaWu1yqvRD+mounMwiO/uoU+WPef7/9X+gb3e1q6na829oSNvamKysauf/cmbTXplMJhLiY+neMo+/D7fv9YDu4bAgTY+PbwA33XST2uVYhclkYty4BG6K6sr/PZGodjnViu57I2++swRvbx+n2f5CXSaTibj4BIrDeuM34mG1y6mWZ9ueFHz3EQG+zjP+TSYTCbFj6Z7XmPtNvdUup1rduYEF+p/wCfBzmu0vhCszmUyMHRuPf2AIXfsMVLucaoW0aMnuH7/Hz8958sdkMpGQEEvvznk8Ms6+5/+9usJHn+rx8al2/n/Qvs6Li6vS0tLYs3c/j4wwql3KdTX0g/hBBubMfp2ysjK1y7GKtLQ0du/ew5Sn/652KdcV2LgBjz04mrlz5zjN9hfqSktLY//ePfjdOVHtUq7Lza8R3kOSeGO284z/tLQ09uzfxyPGPmqXcl0N8SbBcCNzXn/Taba/EK4sLS2Nffv2cmO/wWqXcl1e3r6079aPN9+c7TT5k5aWxp49+0m+z/7n/40awPh7DcyZU/38Xw427dT8eR8S1VFLB/Wecl8r44dCfn4BKSkpapdiFfPnz2PIoD50v9E+nv54PZP+EU9eXp7TbH+hro/mzce38wA8WnVWu5Qa8Rv+AAX5+U4z/ud/OI8obWs6EqJ2KTUynp7kFzhP/gvhyj6aN4/Q1u1oEuIYT3nt0qs/+QVOlP/zPmRAby2dHWP6yQNxkJ9Xff7LwaYdysvLIzV1LXdHGdQupcaCGkL/zm4sWbJQ7VIsZt7+9yXcqXYpNdasaROGDYli6dIlapciHFzF+E/Fs/9otUupMfeGwfh0GciiJUvVLsVieXl5pK5N5W5DB7VLqbEg/Ojv1polCxerXYoQwgJ5eXmsTU0lopMd3yj4P3z8AmjZuh2LFzt+/pjnn6Nvd5z5f3ATGNjPjaXVzP/lYNMOpaamYjIZuUXFl7fWxR29jWxI30hJSYnapVgkNTUVMHHPXYPVLqVW4kffSnr6Boff/kJdqampKCYTPr1uVbuUWvHsN4oN6ekOP/5TU1MxGRWGYcdPhavEHcZINmyU/BHCkaWmpqIoJsLaOcZVLWZtOtzIhg2Onz+pqamYMHLbYLUrqZ1Rw4ykb6h6/i8Hm3YoI2Mj3SPc8fVSu5Laie4EOr2B7du3q12KRTIyMojq0xV/P1+1S6mVWwb3RafTOfz2F+ramJGBd7ueaLz91C6lVrw634RB7/jjP2NjBt3dW+CLh9ql1Ep/wtAZ9A6//YVwZRkZGTQLDcPD01PtUmrlhrC26PWOnz8ZGRvp1cUdPx+1K6mdgX1Ap6t6/i8Hm3Zo25ZN9G6nt7gdvQGe+RjiXqn6Z3QGGPMy3DPL4u4IbgjhN3ixbds2yxtT0fbt2xh0k+WnlXU6PeMemErUkAnXfPbanEVoGvT+y5/nZrxrUX/NmwXRvl0bh9/+Ql3fb92GW2SUxe2YDHoKPnyCi7NGVfp52Z4MLsy4gzMPtuPC1Fsp27XBov7cG4Xg2yLC4cf/tk2b6aO/weJ29Bj5P1KJ4/NrPhvAf+jA7Gv+fE92nfsLxo9wr2CH3/5CuLLNW7YQfEOYxe0oRiOb1nzF6qUfXPPZ5Ut5rPt6EUvefoFFc6ezasl7nMrJtKg/X/8AmoQ0c/j82bZtE/16WGH+r4fHZ8DIB679LDcfJs2EHiOgfQw89BxczLOsv5AgiGhd9fxfDjbtjE6nI+f4KSJbWNZOYQlMfB+Onq3+5+Z8A80aW9bXn0U003Po4AHrNWhjOp2O7OwcunZqa1E7+QWXGTX2aQ5l5lT5M79sXoLp8q9X/7z2wuMW9QnQuWMbDh06ZHE7wjXpdDpOHsvBI9Sy+wWVkkvkv/UA+jO/Vfp5+YFtFMz7Jw3ufpLm7+3Cf/j95P8n2aI+AWgeycGDjjv+dTodOaeOE0mQRe0UUsZjrCKbymcQkQRxmKev/vmVxwmjMQOwbJLZVt+YQwcOWtSGEEIdOp2O48eOExjczKJ2ystKWf/NEi7lXaj08x0bvsVkMjHmoadJTJ5Gq4iObFj1GYpi2dNXGzQO4uBBx80fnU5HTs4pOkRY1s6ly3D/M5BVxfTz4clQWATrP4XtKyoOTJ+0wgmnyDZ6Dh2qfP4vB5t2JisrC6NRoXVTy9o5dh6mJcCQblX/zJqfoFMruLGNZX39WZtmCocP7bdegzZWsf2NRLZtZVE7mVnHeX/Ovxh5+yArVVYz7duFceTIYZv2KZxHVlYWitGItplloWA4l03D+17Cu8fwSj+/vHIO/sPvx7vHMDTe/vjeHIc2xPLVdPdm4ew/7LjjPysrC6Oi0BrLVgCPUcB0bmEIlc9a5vDXh58tZy+j6IQH7hb121ppzOH9jjvZE8KVZWVloShGGgZauNiVn8uAYaMIa9ux0s/9Ahpc+z3/Bri5WXZIUnGw6biLjeb5f7hl00+yT8DLz8Cwm6/97EIu/LIHkidUPNgnKBD++QBs+QmOHres34hWCocPVz7/11rWtLC2CxcqVoKCGlrWTrfw6j8/egZO5sI/7oD5ay3r68+CGsDF3FzrNWhj5u3frGkTi9qJ6tP1uj/z1vtfkL7pJxRFYfDAXrz58pOEtbTsUePNmjbh4sWLFrUhXJd5/Ls3DLaoHc+Iqi9DNxl06I7uwqfncC5MG4Hh3FE8WkTSMHGmRX0CuDUKIdeBx//V/Mey+2W7UX2ONOaPG4KMmFjGPj5jrEV9AgTjy8Xcul+KK4RQjzl/fPz8LWon5Ibqj5b6D7ubbWnf8Nl7rwAmgpu35Pb4hwCNRf36+gVw5qjjXlln3v7Blk0/6dml6s+MyrXfc//9SDD7JERYsOYb3AQuXqx8/i9nNu1McXExAH71+HCg0nJY+QM8crv12/bzhuLiUus3bCPm7e/vX/8PB2reLIi9O75k17bPKSvTceeYJzEYLLuMJMDfl6KiIitVKFyNefzX58OBlKJ8UIyUbvuawEffofm7O/HqNpS8ufdjzL/Odf/X4ebtR8nvv4Mjupr/Nnw40Hoy6U0LArH8iRR+eFJc6rjbXwhXZs4fD4/6fTrljxlruHwpj7hHnmH8pBkENw9l/YrFKEbL5j8enl4UFzvu02iv5n89PhyoeQh0iYT3FlXcu5l3qeK/3d2g8LJlbfv7QnFR5fN/Odi0MzqdDgCPejzn/FEqLFgHnR+Gjg9V3Ld5+GTFf0+28DWZXh5QXm75zc1qMW9/r3p+EttzT03gjZcm0TQkkNAWIbz+4hPsP3iUQ0eqvsezJry9vSgv11mpSuFqzONfo62/8e/mV3HZhu/AMWhbtEPj7U+DuyeBolB+6AeL2tZ4eKHXlVujTFVczX8bXnS0mJ3cRy+rtOWFlnK95I8QjsicP+5ayy6nr45Br+fQrh/pHh1DQMPGeHp502/w7eRfOMfpY5Xf419T7lotOifI//p+EPBHr4LJBAPHwIjxMKQ/mIAQC8+oenlCua7y+b9cRmtnfH0rzqhdKQf/elrd+Oc9FX/M5q+F1F9g5XTL2y4tB19fb8sbUol5+5eUXqFBQP2d3enWP57d2z9Ho6m4bMRkMgFc/bquiotL8XOwV7YI+2Ee/6byK2h8LLuUqioaTx/cA5tjMlby0moLx79SVoK3r2O9suXPruY/evyp/1cP7OEsfnjSFgtnGb8rQYevt+SPEI7InD8GvR4Pz/o5u2kyKVfnO//LaOEDgvQ63dXfwRFdzf8r4F+P/4y98HbFPZ2hv99t8cveihNcPSx8tWrJFfCrYv4vZzbtTEBAAAAlDro4U3wFGgTUzyTVFszbv6iofi/FyMsv5PlZH3C5qIRTpy/wr+nv0rljOB0iW1vU7uWiEho0uPbmeyFqwjz+lbL6vRTS/5YJlGz6DP2pw5jKSri86m00Hp54dR5oUbumK8X4/91L194AABO6SURBVP47OKKr+Y9tzg4u5FcmWOmsJlTU3cDfcfNfCFdmzp/6PDvo4elF0xZh7N6xieLLl9CVl/Hz5rVoPTxoauErV/S6MqfIf1vcifb2wop+DmTC86/Do4lg6dS9uAQCGlTeiJzZtDOtWlXcWH0mD5o2qns72efgjml/fN3xIZgaD+OG/PXnujzyxw3DHR+Ctx6FWy2Ye5zOg1ZhFj5KS0Xm7X/85Dla3BBS53YOZx6jY+/RV7/WNOjNu28+S/LDsQCs+PR1Xvz3x7TufBceHloG3dST775+G62Fl68cO37m6u8gRG2Zx44x9zTujev++HvD2aOcfy7m6ten72tFo6RZ+N0yAQD/EQ9jLMon97V4TPoyPMO60OT/llr8YCJD7inCHHj8X81/LtOUuv/Ln00+t/PHPREdmM00hjCOHle/d4bLHCWfm2hd537+1yku06qV5U8VFkLYnjl/igsL8POv+6L1pbyLfL1gztWvP359Mv1vGUmnntEADBkZz48Z37FqyXsYDQYCg5tx6+gJFj+YqKiwwCny/9Q5aGbBP4VZxyEm7o+vW0bBi0/DhDEVX0+eCDPmQM/bK55Gm3RPxcGmpU6epcr5pxxs2pnQ0FD8/HzIOXeFHha8aye8GRyaf/2f2/9R3fuozLHzWjr0u/6TWO1VaGgo/v5+HPntGP373VjndjpEtsZ0+dcqP+/Xuwtrlr9V5/arciTrBO3bd7J6u8I1hIaG4uPnj+HcUTzb1X3VSds8ghaLT1T9A27uNBz7PA3HPl/nPip1PpsufSx7R6iaQkND8fPxJedKPj24oc7thBPIYZ6u9mduoAHfcl+d+6jMMe0lOnSNuf4PCiHsTmhoKL6+vhTm59K0Rd0XjRo1CebBZ1+t8nO/gIYMHZVQ5/arUnQpj6jBN1m9XVsJDQ3F38+H7ONX6G3BNLptGJz8sfrPP3u77u1XJfuElg6dKy9cLqO1MxqNhs6dOrD/mNqV1J5igkMnNXTt6rgHmxqNhs6dO/PrLsd7V5OiKOzac8Sht79Ql0ajoWOnTuhy9qpdSu2ZFPTH9zv0+NdoNHTu0In9nFe7lFpTMHFIc9Ght78Qrkyj0dCpUydyz51Su5RaM5lM5F8469D5o9Fo6NS5A3scb/qJosD+zKrn/3KwaYdihgznl9/q/+EQ1nbkJORf1hMT49gr24MHx7Bpy3/VLqPW9uz7jdy8Aoff/kJdw4bEYDqyQ+0yak1/4hC6y/kOP/5jhg/lZ88zapdRa4e5SL6+2OG3vxCubOjQoVw4fVztMmot/8JZSoqLHD5/YmKGs2On483/D2ZBfkHV83852LRDQ4cOJeu0jpMO9m7yLfshOKixQ68sQcX2P3Qkm+xjp9UupVbWpm8nJCTY4be/UNfQoUMpPfUbhovVXAZrh8r2biIwyPHH/9ChQ8nSXeAkhWqXUitbySG4cROH3/5CuLKhQ4eSe+EsRZfy1S6lVk7mHKFJkyCHz5+hQ4fyW46OE441/WTTDxAcXPX8Xw427VBMTAxNQ5rwbTXXXNuj1F89iY1LwM3NsYdVTEwMzZo15dMvU9UupVa++Ho9Y8bEOvz2F+qKiYmhSUhTrmz/Ru1SasXw82ri4xx//MfExNC0STCrOah2KbXynedvxCaMdfjtL4Qri4mJITg4hKyDu9QupVaOH9nP2LFxDp8/MTExNG3ahG/S1K6kdlZv8CQ2tur5v2P/rTgprVZLwrjxrPrJ4+qTYu3d7qOQeVJHUlKS2qVYTKvVEh+fwOIvvsPoIH8BO37ey/6DWU6x/YW6tFot48cloP9hBVj43jNb0WX9l9ITh51i/Gu1WhLGJ5LicRgjlb+Pzt7s5gyZuvNOsf2FcGVarZbExHFkH9qDyeQY858LZ05w8fwZp8gfrVZLQsJ4vl7rOPP//+6Dw1nVz//lYNNOJScnczbXSFrVDzS1K/PT3Onbpyf9+vVTuxSrSE5O5sTJcyxbma52KTXy6uxF9OvX12m2v1BXcnIyutzTXPl5jdql1Ejpdx/Qq4/zjP/k5GTOGAtJ44japdTIPPdf6Nuzt9NsfyFcWXJyMpcv5ZN9eJ/apdTI3p8207t3H6fJn+TkZE6fM7Jmg9qV1Mz7S9zp17f6+b8cbNqp8PBwYmNj+cgBVjf2H4NNe4xMm/6C2qVYjXn7v/zGJxgM9n1259ddB1mTtpWpU6dd/4eFqIHw8HDGxMZyZc17YDSoXU61dDl7Kdm1gZnTnWf8m/PnQ49fMGLf/wDs5zybjEeZ9sIMtUsRQliBOX/2/bwZRbHv/Mk9d4rjWYeYMWO62qVYjXn7v7vYAzuffrL3EGzYZmTqtOrn/xqTyeQY1+m4oKysLLp26cSkUXomDFO7msopJkj4t5aAZr3ZsvUHNBqN2iVZTVZWFl27duHl6Y/xVPI4tcuplKIo9L/lATx9GrJ58xan2v5CXVlZWXTu0hWfe5/B/7aH1C6nciaF/JfuoXtTf7Zv3exU4z8rK4uunbowSR/N36n7O0/rk4KJeO1XBPRuzZYftjrV9hfClVXkfxd69L+Frn3s892VJpOJ7774iPCwULZtda78Mc//n31Uz0PxaldTOUWBux/W4t+oN5u3VDv/X+4+c+bMmTasTdRCYGAgBoORtxduZ0RvhYZ+ald0rc82wcrtGlZ/+x1NmzZVuxyrqtj+Bl59413i/jacxo0aqF3SNd6bt4xFn33L6tWrnW77C3UFBgZiNBjI+GQOXv3uws2vodolXaN4wyKubF3Omm+db/wHBgZiMBp4e/tXjFDa0xBvtUu6xmfsZqXmAKu/+9bptr8Qrsyc/19/+Snh7bvi5e2jdknXOLhrB7/t+y9rvnW+/DHP/+e8t52Rtyg0tL/pJ4u+huXfaVi9+rrz/4NyZtPOlZWVEdWvD0rRET57Vo+HVu2K/nDwBMS/5saU56czY4ZzXkJVVlZGdHQUWjcD29d/jKenh9olXbVzz2H633I/kydPcdrtL9RVVlZGn35RZJdAoynfoNHaz/jXH9tP3kt3M+155x3/ZWVlRPXph3Ikl8/1sXjgrnZJVx3kPGPdvmTK9KlOu/2FcGVlZWX07dePC3mXuGPsw7i520/+5J4/w5rPPmTq1OedNn/KysqIiuoD+iOs/EiPh/3888u+I3D3Q25MmVKj+f9yOdh0AJmZmfTq1YPh3ct4abyCPVwpcLEQxr3uQdtO0WzYuMnhHzddnczMTHr37sXoUUNY8P40u7hU4+y5XAYMf4A24ZGkp29w6u0v1JWZmUmPXr1x6zmChve/gT0EkPHSBS69ci/9OkaQsdG5x39mZia9evTk1rJwXlKGo/7Wh4uUkOCxjLbRN7Jh00an3v5CuLLMzEx69uxJaERHBt52L9hBApUWF5H65Ty639iFjRudO38yMzPp3asHIwaX8ebz9jH/v5AL9zziQURk9P+3d/8/Ud93AMefBxwUDsuXA2u1p4eKiojgbEFAa2/Wro1pbLrmFBuara5LtnVpq3aJgtZa5+b80q6tWJclfm1rbdPQ1RXwrnwRsbUuIoJ8m991Kogc9x3u8G4/kCOzyVKqwAn3evwBn/c7r7zuldf73p/P+43R2Kf+X16jHQrUajVpaTNYt3k/zi4vWVP9Ox+rA158R0mISkNxiQGV6h58v7cfqdVqUlPTWLV6PQ6Hk8d1/j3xrMNsZf7Cl/EqlBQVFQ/7+Av/UqvVzEhLZe+mtXi6HIQlz/HrfDwOC+bNSxgTEcShkuGf/2q1mrQZaby5/z2cXjdZjPPrfCx0sVT5OcGaKIoNJcM+/kIEsp7+M42C997B7XYxZtxEv87H1dVJyWc7iY26n5KS4V9/1Go1qWkzWPvH/TidXuak+3c+FivkvKIkKFRDcXGf+/96WWwOEYmJiWgTEnhjSyEWp4LZU/2zwXDD3LPQtHbHUl5xhNGjRw/+JPwgMTERrVbLH1auo6PDys/mzfLLDue1623MX/gyN002ysrKAyb+wr8SExNJSNByYPNqvA4zYdPm+qUA3epoxbxpCVFuM5UVgZP/vfW/sACLoovZaP2yv3ADO0uVn2OJVVB+5HDAxF+IQNZT/xPYse1dXJ2dPJSQiD92OB02KyWf7SRE4eXw4YqAqT89/WcC+W8VYrEqmJvhn/6/ta1noWm2x1Je/qP6f1lsDiWpqakkJSWx/u1Cmv8Dc5K9hA7iN5z1l+DX7/bsaJaVV6LVagdv8HuAL/55azZQe/rfPDk/i7BB/IbzRE0jTz77e7wKJaWlZQEXf+Ffvvw/sPVN3FcaCUuZiyIkdNDGd1+ow7w1lzERQRwuD7z898X/rcIPaKKNOV4toYP4DWc9LbykLCRYE0VZZUXAxV+IQOarP3//4H3ab1znoYRJBAcPXgPa1nIVw+e7iY26n4qK8oCrP774v7mhkMaz8Fiml8E8QqS2CXJf69nRLCv70f1//fB90XmY0uv1FBWXcOJCNM9tUFJ7YeDH9HhhX2nPYUATp2ZSdfRYwP3QffR6PUVFRRw+eoqZc3I5fqJ+wMf0eDy8t+MTsh5/kYTxkzhypCpg4y/8S6/XU1JcxH3nvsO0dgGu8zUDP6jXg82wk5vrnyE9aQLfHg3c/Nfr9RSVFHMi+iY/V35MLdcHfEwPXvZRzeKg/UzMnE7VsW8CNv5CBDK9Xk9xcTHmtmt8ua+AG9euDPiYXq+X0yeOcvDDD0idPo1vvjkasPXH1/8fr41mwS+U1Ax8+4nHAzs/7TkMaMKkTKqq7qz/l8XmEKTT6ThZU8f4KVnk/EnBuo8UmO0DM1bdBcjZGMLGAz2nzhqMpcTFxQ3MYEOETqejuvokY7UTyJz3S363fCPtJsuAjPWv6noy573IspVvs3LlKg4dMgR8/IV/6XQ6amtOkjElgbZ1z2Dek4/H3jEgY7nOn8K0/hlsH7/F6rxVlBol/3U6HSfrahiflcJixcesU3yNmc4BGauOFhaHfMKfgypYtSYfQ6kx4OMvRCDT6XScqqkhNSWZLz/czlHDP+jqdAzIWG3Xr/DPj3bwXdlX5Ofn8bVR6o9Op6P6ZB3aiVksfElB3iYFHQPTfnKqARa+FMK6v/acOmsw3Hn/L6fRDmFer5d9+/axYvmrOOwWcuZ288I8iOuH6/BqzsHfioIpq7lFdlYmBdt3kJKScvcPHkZ88X/99RU4nQ5++6vneOU3OYx6QH3Xz/72eC0bNu/kYHEls2dns21bgcRf3FN8+f/a8hVY7E7u+2kuqieWEhwVf9fPdp09gePgNuzVRjKzZ7OjYJvk//f01v9Xl+Gw2FjSPZ0X+Alx3P2BGTVcY0fwd5TdOkt2ZhYFO7ZL/IUQvXz1Z9my5djsNianZjBtZhbhqhF3/ezWq5c4dayCi2cayMrKYvt2qT/f11v/V7yK02HhhWe7WboI4u++/eREHby/OxjjkVvMzs5kW8Fd9/9y9clwYLVaKSgoYMvmjZhMHWQnB/HUw7fImgrxfVx4erzQfAUqauHg8VDOXHGRkT6T/NVrWbBgwT1x3ce9yhf/rVu30N7ezhPzMln07Hzm6zJ4cFTf/gXyeDycqjvDV4eO8OGBEuobzzJrVgZ5efkSf3FP8+X/XzZvocNkIjzlUULTnyYseQ7B0SP79hCvB/flBjprynAfK8R5uZmH02fxxuo8yf8f0Fv/N27C1NFBdpCWp25NIptxxPdx4enBSxM3OMx5vgxt5oyrlYyZj5C/do3EXwjxf/nqz6ZNmzF1mNAkTEI7aRpjtIlERPZt4en1emm/cZ3L5xq50FhLW+s1HklPZ83q1VJ/fkBv/d+yEVN7B4/OCuLpebd4NB1G9nET0uOBhjNQehQKD4XSfM7FrIyZ5OX3W/8vi83hpLOzky+++II9e3ZhNBhxubsZPzqMiQ+60T7gIT4KIsIgPKzn+hJ7J1xpg4utITRcVtBucROnjmbR4ufJzc0lI8O/V3wMNb747927B4PBiMvlYnJiAtOmjmfSxLE8OCqOSFU4qohwOsxWrDYH5y9epfnMJaprmmi7aSI+Pg69fpHEXww5vvzftWcvRoOBbreLiDETYPRkgh9IICh6JEH3qVCEReBxWPA6bXS3XYaW87gv1uGytBOjjmfJYr3k/x3orf+7dmM0GnF1uxkfFk+iO4ZxnhhGoiICJeEosdKFHRdXMHMhxEyD4gbtbhtx0bEsej5H4i+E+FF89Wf37j0YjQbcbjfqkaOIiolnRIyaiMgRKJVhhCiVuLo6cbu6sJpNWDtu0t56DbvNSmysmpycxVJ/7kBv/7lnFwajEZermwnaMCYnuBk/1sPIOFCFQ3h4z/UldgdcugrnL4dQ16yg3eQmPi4a/aIB6f9lsTlc2e12qqqqqKyspLGhnqbG07S0tmJ3dGK3O4mOiiRSpUIzVkPS1OmkpKSg0+lISUkZ1hfkDpbb4t/YSHNzEy0tLdjtdmw2OzEx0URGRqLRaJgyJUniL4aV/83/hoZGTjc20dragtPhwGm3MSIqmojISMZqNKRMlfzvb7fVn/oGmk439NT/Tgd2p4PoyCgiVRFoNGNJmp4s8RdC9Jvb638DDQ2NtLa24HA4cDgc3B8VhUqlYqxGQ3Ky1J/+dnv/WU9T02laWlpx2Dux2Z3EREeiilSh0WhIShqU/l8Wm0IIIYQQQggh+t2n8heCEEIIIYQQQoh+J4tNIYQQQgghhBD9ThabQgghhBBCCCH6XQjwqb8nIYQQQgghhBBiWPn2v79Qe3AgHiUMAAAAAElFTkSuQmCC;" vertex="1" parent="1">
          <mxGeometry x="500" y="240" width="500.04" height="240" as="geometry" />
        </mxCell>
        <mxCell id="kx_k52X7v49Zel8knufp-2" value="space" style="text;html=1;align=center;verticalAlign=middle;resizable=0;points=[];autosize=1;strokeColor=none;fillColor=none;fontSize=25;" vertex="1" parent="1">
          <mxGeometry x="339" y="183" width="90" height="40" as="geometry" />
        </mxCell>
        <mxCell id="kx_k52X7v49Zel8knufp-3" value="bsptree" style="text;html=1;align=center;verticalAlign=middle;resizable=0;points=[];autosize=1;strokeColor=none;fillColor=none;fontSize=25;" vertex="1" parent="1">
          <mxGeometry x="680" y="183" width="110" height="40" as="geometry" />
        </mxCell>
        <mxCell id="kx_k52X7v49Zel8knufp-5" value="" style="rounded=0;whiteSpace=wrap;html=1;fillColor=none;strokeColor=none;" vertex="1" parent="1">
          <mxGeometry x="250" y="173" width="770" height="337" as="geometry" />
        </mxCell>
      </root>
    </mxGraphModel>
  </diagram>
</mxfile>
